%TF.GenerationSoftware,KiCad,Pcbnew,9.0.2+dfsg-1*%
%TF.CreationDate,2026-09-30T04:22:22-07:00*%
%TF.ProjectId,Footprint_Geometry_QA_ONLY,466f6f74-7072-4696-9e74-5f47656f6d65,rev?*%
%TF.SameCoordinates,Original*%
%TF.FileFunction,Copper,L1,Top*%
%TF.FilePolarity,Positive*%
%FSLAX46Y46*%
G04 Gerber Fmt 4.6, Leading zero omitted, Abs format (unit mm)*
G04 Created by KiCad (PCBNEW 9.0.2+dfsg-1) date 2026-09-30 04:22:22*
%MOMM*%
%LPD*%
G01*
G04 APERTURE LIST*
G04 Aperture macros list*
%AMRoundRect*
0 Rectangle with rounded corners*
0 $1 Rounding radius*
0 $2 $3 $4 $5 $6 $7 $8 $9 X,Y pos of 4 corners*
0 Add a 4 corners polygon primitive as box body*
4,1,4,$2,$3,$4,$5,$6,$7,$8,$9,$2,$3,0*
0 Add four circle primitives for the rounded corners*
1,1,$1+$1,$2,$3*
1,1,$1+$1,$4,$5*
1,1,$1+$1,$6,$7*
1,1,$1+$1,$8,$9*
0 Add four rect primitives between the rounded corners*
20,1,$1+$1,$2,$3,$4,$5,0*
20,1,$1+$1,$4,$5,$6,$7,0*
20,1,$1+$1,$6,$7,$8,$9,0*
20,1,$1+$1,$8,$9,$2,$3,0*%
G04 Aperture macros list end*
%TA.AperFunction,SMDPad,CuDef*%
%ADD10RoundRect,0.050000X-0.300000X-0.050000X0.300000X-0.050000X0.300000X0.050000X-0.300000X0.050000X0*%
%TD*%
%TA.AperFunction,SMDPad,CuDef*%
%ADD11RoundRect,0.050000X-0.250000X-0.050000X0.250000X-0.050000X0.250000X0.050000X-0.250000X0.050000X0*%
%TD*%
%TA.AperFunction,SMDPad,CuDef*%
%ADD12RoundRect,0.050000X-0.050000X-0.250000X0.050000X-0.250000X0.050000X0.250000X-0.050000X0.250000X0*%
%TD*%
%TA.AperFunction,SMDPad,CuDef*%
%ADD13RoundRect,0.050000X-0.500000X-0.250000X0.500000X-0.250000X0.500000X0.250000X-0.500000X0.250000X0*%
%TD*%
%TA.AperFunction,SMDPad,CuDef*%
%ADD14RoundRect,0.100000X-0.250000X-0.075000X0.250000X-0.075000X0.250000X0.075000X-0.250000X0.075000X0*%
%TD*%
%TA.AperFunction,SMDPad,CuDef*%
%ADD15RoundRect,0.100000X-0.450000X-0.050000X0.450000X-0.050000X0.450000X0.050000X-0.450000X0.050000X0*%
%TD*%
%TA.AperFunction,SMDPad,CuDef*%
%ADD16C,0.265000*%
%TD*%
G04 APERTURE END LIST*
D10*
%TO.P,U101,1*%
%TO.N,U101_1*%
X6250000Y-6400000D03*
D11*
%TO.P,U101,2*%
%TO.N,U101_2*%
X6200000Y-6800000D03*
%TO.P,U101,3*%
%TO.N,U101_3*%
X6200000Y-7200000D03*
%TO.P,U101,4*%
%TO.N,U101_4*%
X6200000Y-7600000D03*
D12*
%TO.P,U101,5*%
%TO.N,U101_5*%
X6400000Y-8200000D03*
%TO.P,U101,6*%
%TO.N,U101_6*%
X6800000Y-8200000D03*
%TO.P,U101,7*%
%TO.N,U101_7*%
X7200000Y-8200000D03*
%TO.P,U101,8*%
%TO.N,U101_8*%
X7600000Y-8200000D03*
D11*
%TO.P,U101,9*%
%TO.N,U101_9*%
X7800000Y-7600000D03*
%TO.P,U101,10*%
%TO.N,U101_10*%
X7800000Y-7200000D03*
%TO.P,U101,11*%
%TO.N,U101_11*%
X7800000Y-6800000D03*
%TO.P,U101,12*%
%TO.N,U101_12*%
X7800000Y-6400000D03*
D12*
%TO.P,U101,13*%
%TO.N,U101_13*%
X7600000Y-5800000D03*
%TO.P,U101,14*%
%TO.N,U101_14*%
X7200000Y-5800000D03*
%TO.P,U101,15*%
%TO.N,U101_15*%
X6800000Y-5800000D03*
%TO.P,U101,16*%
%TO.N,U101_16*%
X6400000Y-5800000D03*
%TD*%
D13*
%TO.P,U102,1*%
%TO.N,U102_1*%
X17700000Y-6050000D03*
%TO.P,U102,2*%
%TO.N,U102_2*%
X17700000Y-7000000D03*
%TO.P,U102,3*%
%TO.N,U102_3*%
X17700000Y-7950000D03*
%TO.P,U102,4*%
%TO.N,U102_4*%
X20300000Y-7950000D03*
%TO.P,U102,5*%
%TO.N,U102_5*%
X20300000Y-6050000D03*
%TD*%
D14*
%TO.P,U103,1*%
%TO.N,U103_1*%
X6350000Y-16500000D03*
%TO.P,U103,2*%
%TO.N,U103_2*%
X6350000Y-17000000D03*
%TO.P,U103,3*%
%TO.N,U103_3*%
X6350000Y-17500000D03*
D15*
%TO.P,U103,4*%
%TO.N,U103_4*%
X7450000Y-17500000D03*
%TO.P,U103,5*%
%TO.N,U103_5*%
X7450000Y-17000000D03*
%TO.P,U103,6*%
%TO.N,U103_6*%
X7450000Y-16500000D03*
%TD*%
D16*
%TO.P,U104,A1*%
%TO.N,U104_A1*%
X18650000Y-16300000D03*
%TO.P,U104,A2*%
%TO.N,U104_A2*%
X19000000Y-16300000D03*
%TO.P,U104,A3*%
%TO.N,U104_A3*%
X19350000Y-16300000D03*
%TO.P,U104,B1*%
%TO.N,U104_B1*%
X18650000Y-16650000D03*
%TO.P,U104,B2*%
%TO.N,U104_B2*%
X19000000Y-16650000D03*
%TO.P,U104,B3*%
%TO.N,U104_B3*%
X19350000Y-16650000D03*
%TO.P,U104,C1*%
%TO.N,U104_C1*%
X18650000Y-17000000D03*
%TO.P,U104,C2*%
%TO.N,U104_C2*%
X19000000Y-17000000D03*
%TO.P,U104,C3*%
%TO.N,U104_C3*%
X19350000Y-17000000D03*
%TO.P,U104,D1*%
%TO.N,U104_D1*%
X18650000Y-17350000D03*
%TO.P,U104,D2*%
%TO.N,U104_D2*%
X19000000Y-17350000D03*
%TO.P,U104,D3*%
%TO.N,U104_D3*%
X19350000Y-17350000D03*
%TO.P,U104,E1*%
%TO.N,U104_E1*%
X18650000Y-17700000D03*
%TO.P,U104,E2*%
%TO.N,U104_E2*%
X19000000Y-17700000D03*
%TO.P,U104,E3*%
%TO.N,U104_E3*%
X19350000Y-17700000D03*
%TD*%
M02*
