%TF.GenerationSoftware,KiCad,Pcbnew,9.0.2+dfsg-1*%
%TF.CreationDate,2026-09-30T04:22:22-07:00*%
%TF.ProjectId,Footprint_Geometry_QA_ONLY,466f6f74-7072-4696-9e74-5f47656f6d65,rev?*%
%TF.SameCoordinates,Original*%
%TF.FileFunction,Soldermask,Top*%
%TF.FilePolarity,Negative*%
%FSLAX46Y46*%
G04 Gerber Fmt 4.6, Leading zero omitted, Abs format (unit mm)*
G04 Created by KiCad (PCBNEW 9.0.2+dfsg-1) date 2026-09-30 04:22:22*
%MOMM*%
%LPD*%
G01*
G04 APERTURE LIST*
G04 Aperture macros list*
%AMRoundRect*
0 Rectangle with rounded corners*
0 $1 Rounding radius*
0 $2 $3 $4 $5 $6 $7 $8 $9 X,Y pos of 4 corners*
0 Add a 4 corners polygon primitive as box body*
4,1,4,$2,$3,$4,$5,$6,$7,$8,$9,$2,$3,0*
0 Add four circle primitives for the rounded corners*
1,1,$1+$1,$2,$3*
1,1,$1+$1,$4,$5*
1,1,$1+$1,$6,$7*
1,1,$1+$1,$8,$9*
0 Add four rect primitives between the rounded corners*
20,1,$1+$1,$2,$3,$4,$5,0*
20,1,$1+$1,$4,$5,$6,$7,0*
20,1,$1+$1,$6,$7,$8,$9,0*
20,1,$1+$1,$8,$9,$2,$3,0*%
G04 Aperture macros list end*
%ADD10RoundRect,0.100000X-0.250000X-0.050000X0.250000X-0.050000X0.250000X0.050000X-0.250000X0.050000X0*%
%ADD11RoundRect,0.100000X-0.300000X-0.050000X0.300000X-0.050000X0.300000X0.050000X-0.300000X0.050000X0*%
%ADD12RoundRect,0.100000X-0.050000X-0.250000X0.050000X-0.250000X0.050000X0.250000X-0.050000X0.250000X0*%
%ADD13RoundRect,0.100000X-0.500000X-0.250000X0.500000X-0.250000X0.500000X0.250000X-0.500000X0.250000X0*%
%ADD14RoundRect,0.050000X-0.250000X-0.075000X0.250000X-0.075000X0.250000X0.075000X-0.250000X0.075000X0*%
%ADD15RoundRect,0.050000X-0.450000X-0.050000X0.450000X-0.050000X0.450000X0.050000X-0.450000X0.050000X0*%
%ADD16C,0.200000*%
G04 APERTURE END LIST*
D10*
%TO.C,U101*%
X6200000Y-6800000D03*
X6200000Y-7200000D03*
X6200000Y-7600000D03*
D11*
X6250000Y-6400000D03*
D12*
X6400000Y-5800000D03*
X6400000Y-8200000D03*
X6800000Y-5800000D03*
X6800000Y-8200000D03*
X7200000Y-5800000D03*
X7200000Y-8200000D03*
X7600000Y-5800000D03*
X7600000Y-8200000D03*
D10*
X7800000Y-6400000D03*
X7800000Y-6800000D03*
X7800000Y-7200000D03*
X7800000Y-7600000D03*
%TD*%
D13*
%TO.C,U102*%
X17700000Y-6050000D03*
X17700000Y-7000000D03*
X17700000Y-7950000D03*
X20300000Y-6050000D03*
X20300000Y-7950000D03*
%TD*%
D14*
%TO.C,U103*%
X6350000Y-16500000D03*
X6350000Y-17000000D03*
X6350000Y-17500000D03*
D15*
X7450000Y-16500000D03*
X7450000Y-17000000D03*
X7450000Y-17500000D03*
%TD*%
D16*
%TO.C,U104*%
X18650000Y-16300000D03*
X18650000Y-16650000D03*
X18650000Y-17000000D03*
X18650000Y-17350000D03*
X18650000Y-17700000D03*
X19000000Y-16300000D03*
X19000000Y-16650000D03*
X19000000Y-17000000D03*
X19000000Y-17350000D03*
X19000000Y-17700000D03*
X19350000Y-16300000D03*
X19350000Y-16650000D03*
X19350000Y-17000000D03*
X19350000Y-17350000D03*
X19350000Y-17700000D03*
%TD*%
M02*
