%TF.GenerationSoftware,KiCad,Pcbnew,9.0.2+dfsg-1*%
%TF.CreationDate,2026-10-01T10:40:58-07:00*%
%TF.ProjectId,NXP_Geometry_QA_ONLY,4e58505f-4765-46f6-9d65-7472795f5141,rev?*%
%TF.SameCoordinates,Original*%
%TF.FileFunction,AssemblyDrawing,Top*%
%FSLAX46Y46*%
G04 Gerber Fmt 4.6, Leading zero omitted, Abs format (unit mm)*
G04 Created by KiCad (PCBNEW 9.0.2+dfsg-1) date 2026-10-01 10:40:58*
%MOMM*%
%LPD*%
G01*
G04 APERTURE LIST*
%ADD10C,0.080000*%
%ADD11C,0.050000*%
G04 APERTURE END LIST*
D10*
X1870237Y-6650280D02*
X2236904Y-6650280D01*
X2236904Y-6650280D02*
X2001189Y-7200280D01*
X2682142Y-6833613D02*
X2682142Y-7200280D01*
X2551190Y-6624090D02*
X2420237Y-7016947D01*
X2420237Y-7016947D02*
X2760714Y-7016947D01*
X2944047Y-7043137D02*
X3205952Y-7043137D01*
X2891666Y-7200280D02*
X3075000Y-6650280D01*
X3075000Y-6650280D02*
X3258333Y-7200280D01*
X3441667Y-6650280D02*
X3441667Y-7095518D01*
X3441667Y-7095518D02*
X3467857Y-7147899D01*
X3467857Y-7147899D02*
X3494048Y-7174090D01*
X3494048Y-7174090D02*
X3546429Y-7200280D01*
X3546429Y-7200280D02*
X3651191Y-7200280D01*
X3651191Y-7200280D02*
X3703572Y-7174090D01*
X3703572Y-7174090D02*
X3729762Y-7147899D01*
X3729762Y-7147899D02*
X3755953Y-7095518D01*
X3755953Y-7095518D02*
X3755953Y-6650280D01*
X4017857Y-7200280D02*
X4017857Y-6650280D01*
X4017857Y-6650280D02*
X4227381Y-6650280D01*
X4227381Y-6650280D02*
X4279762Y-6676470D01*
X4279762Y-6676470D02*
X4305952Y-6702661D01*
X4305952Y-6702661D02*
X4332143Y-6755042D01*
X4332143Y-6755042D02*
X4332143Y-6833613D01*
X4332143Y-6833613D02*
X4305952Y-6885994D01*
X4305952Y-6885994D02*
X4279762Y-6912185D01*
X4279762Y-6912185D02*
X4227381Y-6938375D01*
X4227381Y-6938375D02*
X4017857Y-6938375D01*
X4541666Y-6702661D02*
X4567857Y-6676470D01*
X4567857Y-6676470D02*
X4620238Y-6650280D01*
X4620238Y-6650280D02*
X4751190Y-6650280D01*
X4751190Y-6650280D02*
X4803571Y-6676470D01*
X4803571Y-6676470D02*
X4829762Y-6702661D01*
X4829762Y-6702661D02*
X4855952Y-6755042D01*
X4855952Y-6755042D02*
X4855952Y-6807423D01*
X4855952Y-6807423D02*
X4829762Y-6885994D01*
X4829762Y-6885994D02*
X4515476Y-7200280D01*
X4515476Y-7200280D02*
X4855952Y-7200280D01*
X5379762Y-6676470D02*
X5327381Y-6650280D01*
X5327381Y-6650280D02*
X5248810Y-6650280D01*
X5248810Y-6650280D02*
X5170238Y-6676470D01*
X5170238Y-6676470D02*
X5117857Y-6728851D01*
X5117857Y-6728851D02*
X5091667Y-6781232D01*
X5091667Y-6781232D02*
X5065476Y-6885994D01*
X5065476Y-6885994D02*
X5065476Y-6964566D01*
X5065476Y-6964566D02*
X5091667Y-7069328D01*
X5091667Y-7069328D02*
X5117857Y-7121709D01*
X5117857Y-7121709D02*
X5170238Y-7174090D01*
X5170238Y-7174090D02*
X5248810Y-7200280D01*
X5248810Y-7200280D02*
X5301191Y-7200280D01*
X5301191Y-7200280D02*
X5379762Y-7174090D01*
X5379762Y-7174090D02*
X5405953Y-7147899D01*
X5405953Y-7147899D02*
X5405953Y-6964566D01*
X5405953Y-6964566D02*
X5301191Y-6964566D01*
X5667857Y-7200280D02*
X5772619Y-7200280D01*
X5772619Y-7200280D02*
X5825000Y-7174090D01*
X5825000Y-7174090D02*
X5851191Y-7147899D01*
X5851191Y-7147899D02*
X5903572Y-7069328D01*
X5903572Y-7069328D02*
X5929762Y-6964566D01*
X5929762Y-6964566D02*
X5929762Y-6755042D01*
X5929762Y-6755042D02*
X5903572Y-6702661D01*
X5903572Y-6702661D02*
X5877381Y-6676470D01*
X5877381Y-6676470D02*
X5825000Y-6650280D01*
X5825000Y-6650280D02*
X5720238Y-6650280D01*
X5720238Y-6650280D02*
X5667857Y-6676470D01*
X5667857Y-6676470D02*
X5641667Y-6702661D01*
X5641667Y-6702661D02*
X5615476Y-6755042D01*
X5615476Y-6755042D02*
X5615476Y-6885994D01*
X5615476Y-6885994D02*
X5641667Y-6938375D01*
X5641667Y-6938375D02*
X5667857Y-6964566D01*
X5667857Y-6964566D02*
X5720238Y-6990756D01*
X5720238Y-6990756D02*
X5825000Y-6990756D01*
X5825000Y-6990756D02*
X5877381Y-6964566D01*
X5877381Y-6964566D02*
X5903572Y-6938375D01*
X5903572Y-6938375D02*
X5929762Y-6885994D01*
X6113096Y-6650280D02*
X6479763Y-6650280D01*
X6479763Y-6650280D02*
X6244048Y-7200280D01*
X6977382Y-6676470D02*
X6925001Y-6650280D01*
X6925001Y-6650280D02*
X6846430Y-6650280D01*
X6846430Y-6650280D02*
X6767858Y-6676470D01*
X6767858Y-6676470D02*
X6715477Y-6728851D01*
X6715477Y-6728851D02*
X6689287Y-6781232D01*
X6689287Y-6781232D02*
X6663096Y-6885994D01*
X6663096Y-6885994D02*
X6663096Y-6964566D01*
X6663096Y-6964566D02*
X6689287Y-7069328D01*
X6689287Y-7069328D02*
X6715477Y-7121709D01*
X6715477Y-7121709D02*
X6767858Y-7174090D01*
X6767858Y-7174090D02*
X6846430Y-7200280D01*
X6846430Y-7200280D02*
X6898811Y-7200280D01*
X6898811Y-7200280D02*
X6977382Y-7174090D01*
X6977382Y-7174090D02*
X7003573Y-7147899D01*
X7003573Y-7147899D02*
X7003573Y-6964566D01*
X7003573Y-6964566D02*
X6898811Y-6964566D01*
X7239287Y-6650280D02*
X7239287Y-7095518D01*
X7239287Y-7095518D02*
X7265477Y-7147899D01*
X7265477Y-7147899D02*
X7291668Y-7174090D01*
X7291668Y-7174090D02*
X7344049Y-7200280D01*
X7344049Y-7200280D02*
X7448811Y-7200280D01*
X7448811Y-7200280D02*
X7501192Y-7174090D01*
X7501192Y-7174090D02*
X7527382Y-7147899D01*
X7527382Y-7147899D02*
X7553573Y-7095518D01*
X7553573Y-7095518D02*
X7553573Y-6650280D01*
X7763096Y-6650280D02*
X8129763Y-7200280D01*
X8129763Y-6650280D02*
X7763096Y-7200280D01*
D11*
%TO.C,UQA2*%
X4300000Y-4300000D02*
X4500000Y-4100000D01*
X4300000Y-5900000D02*
X4300000Y-4300000D01*
X4500000Y-4100000D02*
X5700000Y-4100000D01*
X5700000Y-4100000D02*
X5700000Y-5900000D01*
X5700000Y-5900000D02*
X4300000Y-5900000D01*
%TD*%
M02*
