%TF.GenerationSoftware,KiCad,Pcbnew,9.0.2+dfsg-1*%
%TF.CreationDate,2026-10-01T10:40:58-07:00*%
%TF.ProjectId,NXP_Geometry_QA_ONLY,4e58505f-4765-46f6-9d65-7472795f5141,rev?*%
%TF.SameCoordinates,Original*%
%TF.FileFunction,Soldermask,Top*%
%TF.FilePolarity,Negative*%
%FSLAX46Y46*%
G04 Gerber Fmt 4.6, Leading zero omitted, Abs format (unit mm)*
G04 Created by KiCad (PCBNEW 9.0.2+dfsg-1) date 2026-10-01 10:40:58*
%MOMM*%
%LPD*%
G01*
G04 APERTURE LIST*
G04 APERTURE END LIST*
G36*
X4772500Y-6112500D02*
G01*
X4427500Y-6112500D01*
X4427500Y-5437500D01*
X4772500Y-5437500D01*
X4772500Y-6112500D01*
G37*
G36*
X5172500Y-6112500D02*
G01*
X4827500Y-6112500D01*
X4827500Y-5437500D01*
X5172500Y-5437500D01*
X5172500Y-6112500D01*
G37*
G36*
X5572500Y-6112500D02*
G01*
X5227500Y-6112500D01*
X5227500Y-5437500D01*
X5572500Y-5437500D01*
X5572500Y-6112500D01*
G37*
G36*
X4762500Y-5372500D02*
G01*
X4087500Y-5372500D01*
X4087500Y-5027500D01*
X4762500Y-5027500D01*
X4762500Y-5372500D01*
G37*
G36*
X5912500Y-5372500D02*
G01*
X5237500Y-5372500D01*
X5237500Y-5027500D01*
X5912500Y-5027500D01*
X5912500Y-5372500D01*
G37*
G36*
X4862500Y-4972500D02*
G01*
X4087500Y-4972500D01*
X4087500Y-4627500D01*
X4862500Y-4627500D01*
X4862500Y-4972500D01*
G37*
G36*
X5912500Y-4972500D02*
G01*
X5237500Y-4972500D01*
X5237500Y-4627500D01*
X5912500Y-4627500D01*
X5912500Y-4972500D01*
G37*
G36*
X4772500Y-4562500D02*
G01*
X4427500Y-4562500D01*
X4427500Y-3887500D01*
X4772500Y-3887500D01*
X4772500Y-4562500D01*
G37*
G36*
X5172500Y-4562500D02*
G01*
X4827500Y-4562500D01*
X4827500Y-3887500D01*
X5172500Y-3887500D01*
X5172500Y-4562500D01*
G37*
G36*
X5572500Y-4562500D02*
G01*
X5227500Y-4562500D01*
X5227500Y-3887500D01*
X5572500Y-3887500D01*
X5572500Y-4562500D01*
G37*
M02*
