%TF.GenerationSoftware,KiCad,Pcbnew,9.0.2+dfsg-1*%
%TF.CreationDate,2026-10-02T23:48:36-07:00*%
%TF.ProjectId,R7_DNP_PASTE_DERIVED_REVIEW_ONLY,52375f44-4e50-45f5-9041-5354455f4445,rev?*%
%TF.SameCoordinates,Original*%
%TF.FileFunction,AssemblyDrawing,Top*%
%FSLAX46Y46*%
G04 Gerber Fmt 4.6, Leading zero omitted, Abs format (unit mm)*
G04 Created by KiCad (PCBNEW 9.0.2+dfsg-1) date 2026-10-02 23:48:36*
%MOMM*%
%LPD*%
G01*
G04 APERTURE LIST*
%ADD10C,0.120000*%
%ADD11C,0.100000*%
%ADD12C,0.150000*%
%ADD13C,0.050000*%
%ADD14C,0.025000*%
G04 APERTURE END LIST*
D10*
X13599997Y-6063855D02*
X13676187Y-6063855D01*
X13676187Y-6063855D02*
X13752378Y-6101950D01*
X13752378Y-6101950D02*
X13790473Y-6140045D01*
X13790473Y-6140045D02*
X13828568Y-6216236D01*
X13828568Y-6216236D02*
X13866663Y-6368617D01*
X13866663Y-6368617D02*
X13866663Y-6559093D01*
X13866663Y-6559093D02*
X13828568Y-6711474D01*
X13828568Y-6711474D02*
X13790473Y-6787664D01*
X13790473Y-6787664D02*
X13752378Y-6825760D01*
X13752378Y-6825760D02*
X13676187Y-6863855D01*
X13676187Y-6863855D02*
X13599997Y-6863855D01*
X13599997Y-6863855D02*
X13523806Y-6825760D01*
X13523806Y-6825760D02*
X13485711Y-6787664D01*
X13485711Y-6787664D02*
X13447616Y-6711474D01*
X13447616Y-6711474D02*
X13409520Y-6559093D01*
X13409520Y-6559093D02*
X13409520Y-6368617D01*
X13409520Y-6368617D02*
X13447616Y-6216236D01*
X13447616Y-6216236D02*
X13485711Y-6140045D01*
X13485711Y-6140045D02*
X13523806Y-6101950D01*
X13523806Y-6101950D02*
X13599997Y-6063855D01*
X14666664Y-6863855D02*
X14399997Y-6482902D01*
X14209521Y-6863855D02*
X14209521Y-6063855D01*
X14209521Y-6063855D02*
X14514283Y-6063855D01*
X14514283Y-6063855D02*
X14590473Y-6101950D01*
X14590473Y-6101950D02*
X14628568Y-6140045D01*
X14628568Y-6140045D02*
X14666664Y-6216236D01*
X14666664Y-6216236D02*
X14666664Y-6330521D01*
X14666664Y-6330521D02*
X14628568Y-6406712D01*
X14628568Y-6406712D02*
X14590473Y-6444807D01*
X14590473Y-6444807D02*
X14514283Y-6482902D01*
X14514283Y-6482902D02*
X14209521Y-6482902D01*
X15542854Y-6063855D02*
X15733330Y-6863855D01*
X15733330Y-6863855D02*
X15885711Y-6292426D01*
X15885711Y-6292426D02*
X16038092Y-6863855D01*
X16038092Y-6863855D02*
X16228569Y-6063855D01*
X16495235Y-6825760D02*
X16609521Y-6863855D01*
X16609521Y-6863855D02*
X16799997Y-6863855D01*
X16799997Y-6863855D02*
X16876188Y-6825760D01*
X16876188Y-6825760D02*
X16914283Y-6787664D01*
X16914283Y-6787664D02*
X16952378Y-6711474D01*
X16952378Y-6711474D02*
X16952378Y-6635283D01*
X16952378Y-6635283D02*
X16914283Y-6559093D01*
X16914283Y-6559093D02*
X16876188Y-6520998D01*
X16876188Y-6520998D02*
X16799997Y-6482902D01*
X16799997Y-6482902D02*
X16647616Y-6444807D01*
X16647616Y-6444807D02*
X16571426Y-6406712D01*
X16571426Y-6406712D02*
X16533331Y-6368617D01*
X16533331Y-6368617D02*
X16495235Y-6292426D01*
X16495235Y-6292426D02*
X16495235Y-6216236D01*
X16495235Y-6216236D02*
X16533331Y-6140045D01*
X16533331Y-6140045D02*
X16571426Y-6101950D01*
X16571426Y-6101950D02*
X16647616Y-6063855D01*
X16647616Y-6063855D02*
X16838093Y-6063855D01*
X16838093Y-6063855D02*
X16952378Y-6101950D01*
X17676188Y-6863855D02*
X17295236Y-6863855D01*
X17295236Y-6863855D02*
X17295236Y-6063855D01*
X18095236Y-6063855D02*
X18171426Y-6063855D01*
X18171426Y-6063855D02*
X18247617Y-6101950D01*
X18247617Y-6101950D02*
X18285712Y-6140045D01*
X18285712Y-6140045D02*
X18323807Y-6216236D01*
X18323807Y-6216236D02*
X18361902Y-6368617D01*
X18361902Y-6368617D02*
X18361902Y-6559093D01*
X18361902Y-6559093D02*
X18323807Y-6711474D01*
X18323807Y-6711474D02*
X18285712Y-6787664D01*
X18285712Y-6787664D02*
X18247617Y-6825760D01*
X18247617Y-6825760D02*
X18171426Y-6863855D01*
X18171426Y-6863855D02*
X18095236Y-6863855D01*
X18095236Y-6863855D02*
X18019045Y-6825760D01*
X18019045Y-6825760D02*
X17980950Y-6787664D01*
X17980950Y-6787664D02*
X17942855Y-6711474D01*
X17942855Y-6711474D02*
X17904759Y-6559093D01*
X17904759Y-6559093D02*
X17904759Y-6368617D01*
X17904759Y-6368617D02*
X17942855Y-6216236D01*
X17942855Y-6216236D02*
X17980950Y-6140045D01*
X17980950Y-6140045D02*
X18019045Y-6101950D01*
X18019045Y-6101950D02*
X18095236Y-6063855D01*
X19047617Y-6063855D02*
X18895236Y-6063855D01*
X18895236Y-6063855D02*
X18819045Y-6101950D01*
X18819045Y-6101950D02*
X18780950Y-6140045D01*
X18780950Y-6140045D02*
X18704760Y-6254331D01*
X18704760Y-6254331D02*
X18666664Y-6406712D01*
X18666664Y-6406712D02*
X18666664Y-6711474D01*
X18666664Y-6711474D02*
X18704760Y-6787664D01*
X18704760Y-6787664D02*
X18742855Y-6825760D01*
X18742855Y-6825760D02*
X18819045Y-6863855D01*
X18819045Y-6863855D02*
X18971426Y-6863855D01*
X18971426Y-6863855D02*
X19047617Y-6825760D01*
X19047617Y-6825760D02*
X19085712Y-6787664D01*
X19085712Y-6787664D02*
X19123807Y-6711474D01*
X19123807Y-6711474D02*
X19123807Y-6520998D01*
X19123807Y-6520998D02*
X19085712Y-6444807D01*
X19085712Y-6444807D02*
X19047617Y-6406712D01*
X19047617Y-6406712D02*
X18971426Y-6368617D01*
X18971426Y-6368617D02*
X18819045Y-6368617D01*
X18819045Y-6368617D02*
X18742855Y-6406712D01*
X18742855Y-6406712D02*
X18704760Y-6444807D01*
X18704760Y-6444807D02*
X18666664Y-6520998D01*
X19619046Y-6063855D02*
X19695236Y-6063855D01*
X19695236Y-6063855D02*
X19771427Y-6101950D01*
X19771427Y-6101950D02*
X19809522Y-6140045D01*
X19809522Y-6140045D02*
X19847617Y-6216236D01*
X19847617Y-6216236D02*
X19885712Y-6368617D01*
X19885712Y-6368617D02*
X19885712Y-6559093D01*
X19885712Y-6559093D02*
X19847617Y-6711474D01*
X19847617Y-6711474D02*
X19809522Y-6787664D01*
X19809522Y-6787664D02*
X19771427Y-6825760D01*
X19771427Y-6825760D02*
X19695236Y-6863855D01*
X19695236Y-6863855D02*
X19619046Y-6863855D01*
X19619046Y-6863855D02*
X19542855Y-6825760D01*
X19542855Y-6825760D02*
X19504760Y-6787664D01*
X19504760Y-6787664D02*
X19466665Y-6711474D01*
X19466665Y-6711474D02*
X19428569Y-6559093D01*
X19428569Y-6559093D02*
X19428569Y-6368617D01*
X19428569Y-6368617D02*
X19466665Y-6216236D01*
X19466665Y-6216236D02*
X19504760Y-6140045D01*
X19504760Y-6140045D02*
X19542855Y-6101950D01*
X19542855Y-6101950D02*
X19619046Y-6063855D01*
X20152379Y-6063855D02*
X20647617Y-6063855D01*
X20647617Y-6063855D02*
X20380951Y-6368617D01*
X20380951Y-6368617D02*
X20495236Y-6368617D01*
X20495236Y-6368617D02*
X20571427Y-6406712D01*
X20571427Y-6406712D02*
X20609522Y-6444807D01*
X20609522Y-6444807D02*
X20647617Y-6520998D01*
X20647617Y-6520998D02*
X20647617Y-6711474D01*
X20647617Y-6711474D02*
X20609522Y-6787664D01*
X20609522Y-6787664D02*
X20571427Y-6825760D01*
X20571427Y-6825760D02*
X20495236Y-6863855D01*
X20495236Y-6863855D02*
X20266665Y-6863855D01*
X20266665Y-6863855D02*
X20190474Y-6825760D01*
X20190474Y-6825760D02*
X20152379Y-6787664D01*
X21142856Y-6063855D02*
X21219046Y-6063855D01*
X21219046Y-6063855D02*
X21295237Y-6101950D01*
X21295237Y-6101950D02*
X21333332Y-6140045D01*
X21333332Y-6140045D02*
X21371427Y-6216236D01*
X21371427Y-6216236D02*
X21409522Y-6368617D01*
X21409522Y-6368617D02*
X21409522Y-6559093D01*
X21409522Y-6559093D02*
X21371427Y-6711474D01*
X21371427Y-6711474D02*
X21333332Y-6787664D01*
X21333332Y-6787664D02*
X21295237Y-6825760D01*
X21295237Y-6825760D02*
X21219046Y-6863855D01*
X21219046Y-6863855D02*
X21142856Y-6863855D01*
X21142856Y-6863855D02*
X21066665Y-6825760D01*
X21066665Y-6825760D02*
X21028570Y-6787664D01*
X21028570Y-6787664D02*
X20990475Y-6711474D01*
X20990475Y-6711474D02*
X20952379Y-6559093D01*
X20952379Y-6559093D02*
X20952379Y-6368617D01*
X20952379Y-6368617D02*
X20990475Y-6216236D01*
X20990475Y-6216236D02*
X21028570Y-6140045D01*
X21028570Y-6140045D02*
X21066665Y-6101950D01*
X21066665Y-6101950D02*
X21142856Y-6063855D01*
X21904761Y-6063855D02*
X21980951Y-6063855D01*
X21980951Y-6063855D02*
X22057142Y-6101950D01*
X22057142Y-6101950D02*
X22095237Y-6140045D01*
X22095237Y-6140045D02*
X22133332Y-6216236D01*
X22133332Y-6216236D02*
X22171427Y-6368617D01*
X22171427Y-6368617D02*
X22171427Y-6559093D01*
X22171427Y-6559093D02*
X22133332Y-6711474D01*
X22133332Y-6711474D02*
X22095237Y-6787664D01*
X22095237Y-6787664D02*
X22057142Y-6825760D01*
X22057142Y-6825760D02*
X21980951Y-6863855D01*
X21980951Y-6863855D02*
X21904761Y-6863855D01*
X21904761Y-6863855D02*
X21828570Y-6825760D01*
X21828570Y-6825760D02*
X21790475Y-6787664D01*
X21790475Y-6787664D02*
X21752380Y-6711474D01*
X21752380Y-6711474D02*
X21714284Y-6559093D01*
X21714284Y-6559093D02*
X21714284Y-6368617D01*
X21714284Y-6368617D02*
X21752380Y-6216236D01*
X21752380Y-6216236D02*
X21790475Y-6140045D01*
X21790475Y-6140045D02*
X21828570Y-6101950D01*
X21828570Y-6101950D02*
X21904761Y-6063855D01*
X22666666Y-6063855D02*
X22742856Y-6063855D01*
X22742856Y-6063855D02*
X22819047Y-6101950D01*
X22819047Y-6101950D02*
X22857142Y-6140045D01*
X22857142Y-6140045D02*
X22895237Y-6216236D01*
X22895237Y-6216236D02*
X22933332Y-6368617D01*
X22933332Y-6368617D02*
X22933332Y-6559093D01*
X22933332Y-6559093D02*
X22895237Y-6711474D01*
X22895237Y-6711474D02*
X22857142Y-6787664D01*
X22857142Y-6787664D02*
X22819047Y-6825760D01*
X22819047Y-6825760D02*
X22742856Y-6863855D01*
X22742856Y-6863855D02*
X22666666Y-6863855D01*
X22666666Y-6863855D02*
X22590475Y-6825760D01*
X22590475Y-6825760D02*
X22552380Y-6787664D01*
X22552380Y-6787664D02*
X22514285Y-6711474D01*
X22514285Y-6711474D02*
X22476189Y-6559093D01*
X22476189Y-6559093D02*
X22476189Y-6368617D01*
X22476189Y-6368617D02*
X22514285Y-6216236D01*
X22514285Y-6216236D02*
X22552380Y-6140045D01*
X22552380Y-6140045D02*
X22590475Y-6101950D01*
X22590475Y-6101950D02*
X22666666Y-6063855D01*
X23428571Y-6063855D02*
X23504761Y-6063855D01*
X23504761Y-6063855D02*
X23580952Y-6101950D01*
X23580952Y-6101950D02*
X23619047Y-6140045D01*
X23619047Y-6140045D02*
X23657142Y-6216236D01*
X23657142Y-6216236D02*
X23695237Y-6368617D01*
X23695237Y-6368617D02*
X23695237Y-6559093D01*
X23695237Y-6559093D02*
X23657142Y-6711474D01*
X23657142Y-6711474D02*
X23619047Y-6787664D01*
X23619047Y-6787664D02*
X23580952Y-6825760D01*
X23580952Y-6825760D02*
X23504761Y-6863855D01*
X23504761Y-6863855D02*
X23428571Y-6863855D01*
X23428571Y-6863855D02*
X23352380Y-6825760D01*
X23352380Y-6825760D02*
X23314285Y-6787664D01*
X23314285Y-6787664D02*
X23276190Y-6711474D01*
X23276190Y-6711474D02*
X23238094Y-6559093D01*
X23238094Y-6559093D02*
X23238094Y-6368617D01*
X23238094Y-6368617D02*
X23276190Y-6216236D01*
X23276190Y-6216236D02*
X23314285Y-6140045D01*
X23314285Y-6140045D02*
X23352380Y-6101950D01*
X23352380Y-6101950D02*
X23428571Y-6063855D01*
X24190476Y-6063855D02*
X24266666Y-6063855D01*
X24266666Y-6063855D02*
X24342857Y-6101950D01*
X24342857Y-6101950D02*
X24380952Y-6140045D01*
X24380952Y-6140045D02*
X24419047Y-6216236D01*
X24419047Y-6216236D02*
X24457142Y-6368617D01*
X24457142Y-6368617D02*
X24457142Y-6559093D01*
X24457142Y-6559093D02*
X24419047Y-6711474D01*
X24419047Y-6711474D02*
X24380952Y-6787664D01*
X24380952Y-6787664D02*
X24342857Y-6825760D01*
X24342857Y-6825760D02*
X24266666Y-6863855D01*
X24266666Y-6863855D02*
X24190476Y-6863855D01*
X24190476Y-6863855D02*
X24114285Y-6825760D01*
X24114285Y-6825760D02*
X24076190Y-6787664D01*
X24076190Y-6787664D02*
X24038095Y-6711474D01*
X24038095Y-6711474D02*
X23999999Y-6559093D01*
X23999999Y-6559093D02*
X23999999Y-6368617D01*
X23999999Y-6368617D02*
X24038095Y-6216236D01*
X24038095Y-6216236D02*
X24076190Y-6140045D01*
X24076190Y-6140045D02*
X24114285Y-6101950D01*
X24114285Y-6101950D02*
X24190476Y-6063855D01*
X24723809Y-6063855D02*
X25257143Y-6063855D01*
X25257143Y-6063855D02*
X24723809Y-6863855D01*
X24723809Y-6863855D02*
X25257143Y-6863855D01*
X25561905Y-6444807D02*
X25828571Y-6444807D01*
X25942857Y-6863855D02*
X25561905Y-6863855D01*
X25561905Y-6863855D02*
X25561905Y-6063855D01*
X25561905Y-6063855D02*
X25942857Y-6063855D01*
X26247619Y-6635283D02*
X26628572Y-6635283D01*
X26171429Y-6863855D02*
X26438096Y-6063855D01*
X26438096Y-6063855D02*
X26704762Y-6863855D01*
X27009524Y-6863855D02*
X27161905Y-6863855D01*
X27161905Y-6863855D02*
X27238095Y-6825760D01*
X27238095Y-6825760D02*
X27276191Y-6787664D01*
X27276191Y-6787664D02*
X27352381Y-6673379D01*
X27352381Y-6673379D02*
X27390476Y-6520998D01*
X27390476Y-6520998D02*
X27390476Y-6216236D01*
X27390476Y-6216236D02*
X27352381Y-6140045D01*
X27352381Y-6140045D02*
X27314286Y-6101950D01*
X27314286Y-6101950D02*
X27238095Y-6063855D01*
X27238095Y-6063855D02*
X27085714Y-6063855D01*
X27085714Y-6063855D02*
X27009524Y-6101950D01*
X27009524Y-6101950D02*
X26971429Y-6140045D01*
X26971429Y-6140045D02*
X26933333Y-6216236D01*
X26933333Y-6216236D02*
X26933333Y-6406712D01*
X26933333Y-6406712D02*
X26971429Y-6482902D01*
X26971429Y-6482902D02*
X27009524Y-6520998D01*
X27009524Y-6520998D02*
X27085714Y-6559093D01*
X27085714Y-6559093D02*
X27238095Y-6559093D01*
X27238095Y-6559093D02*
X27314286Y-6520998D01*
X27314286Y-6520998D02*
X27352381Y-6482902D01*
X27352381Y-6482902D02*
X27390476Y-6406712D01*
X28800001Y-6863855D02*
X28533334Y-6482902D01*
X28342858Y-6863855D02*
X28342858Y-6063855D01*
X28342858Y-6063855D02*
X28647620Y-6063855D01*
X28647620Y-6063855D02*
X28723810Y-6101950D01*
X28723810Y-6101950D02*
X28761905Y-6140045D01*
X28761905Y-6140045D02*
X28800001Y-6216236D01*
X28800001Y-6216236D02*
X28800001Y-6330521D01*
X28800001Y-6330521D02*
X28761905Y-6406712D01*
X28761905Y-6406712D02*
X28723810Y-6444807D01*
X28723810Y-6444807D02*
X28647620Y-6482902D01*
X28647620Y-6482902D02*
X28342858Y-6482902D01*
X29142858Y-6863855D02*
X29142858Y-6330521D01*
X29142858Y-6406712D02*
X29180953Y-6368617D01*
X29180953Y-6368617D02*
X29257143Y-6330521D01*
X29257143Y-6330521D02*
X29371429Y-6330521D01*
X29371429Y-6330521D02*
X29447620Y-6368617D01*
X29447620Y-6368617D02*
X29485715Y-6444807D01*
X29485715Y-6444807D02*
X29485715Y-6863855D01*
X29485715Y-6444807D02*
X29523810Y-6368617D01*
X29523810Y-6368617D02*
X29600001Y-6330521D01*
X29600001Y-6330521D02*
X29714286Y-6330521D01*
X29714286Y-6330521D02*
X29790477Y-6368617D01*
X29790477Y-6368617D02*
X29828572Y-6444807D01*
X29828572Y-6444807D02*
X29828572Y-6863855D01*
X30552382Y-6863855D02*
X30552382Y-6444807D01*
X30552382Y-6444807D02*
X30514287Y-6368617D01*
X30514287Y-6368617D02*
X30438096Y-6330521D01*
X30438096Y-6330521D02*
X30285715Y-6330521D01*
X30285715Y-6330521D02*
X30209525Y-6368617D01*
X30552382Y-6825760D02*
X30476191Y-6863855D01*
X30476191Y-6863855D02*
X30285715Y-6863855D01*
X30285715Y-6863855D02*
X30209525Y-6825760D01*
X30209525Y-6825760D02*
X30171429Y-6749569D01*
X30171429Y-6749569D02*
X30171429Y-6673379D01*
X30171429Y-6673379D02*
X30209525Y-6597188D01*
X30209525Y-6597188D02*
X30285715Y-6559093D01*
X30285715Y-6559093D02*
X30476191Y-6559093D01*
X30476191Y-6559093D02*
X30552382Y-6520998D01*
X30857144Y-6863855D02*
X31276192Y-6330521D01*
X30857144Y-6330521D02*
X31276192Y-6863855D01*
X31580954Y-6444807D02*
X32190478Y-6444807D01*
X32190478Y-6673379D02*
X31580954Y-6673379D01*
X32723811Y-6063855D02*
X32800001Y-6063855D01*
X32800001Y-6063855D02*
X32876192Y-6101950D01*
X32876192Y-6101950D02*
X32914287Y-6140045D01*
X32914287Y-6140045D02*
X32952382Y-6216236D01*
X32952382Y-6216236D02*
X32990477Y-6368617D01*
X32990477Y-6368617D02*
X32990477Y-6559093D01*
X32990477Y-6559093D02*
X32952382Y-6711474D01*
X32952382Y-6711474D02*
X32914287Y-6787664D01*
X32914287Y-6787664D02*
X32876192Y-6825760D01*
X32876192Y-6825760D02*
X32800001Y-6863855D01*
X32800001Y-6863855D02*
X32723811Y-6863855D01*
X32723811Y-6863855D02*
X32647620Y-6825760D01*
X32647620Y-6825760D02*
X32609525Y-6787664D01*
X32609525Y-6787664D02*
X32571430Y-6711474D01*
X32571430Y-6711474D02*
X32533334Y-6559093D01*
X32533334Y-6559093D02*
X32533334Y-6368617D01*
X32533334Y-6368617D02*
X32571430Y-6216236D01*
X32571430Y-6216236D02*
X32609525Y-6140045D01*
X32609525Y-6140045D02*
X32647620Y-6101950D01*
X32647620Y-6101950D02*
X32723811Y-6063855D01*
X33333335Y-6787664D02*
X33371430Y-6825760D01*
X33371430Y-6825760D02*
X33333335Y-6863855D01*
X33333335Y-6863855D02*
X33295239Y-6825760D01*
X33295239Y-6825760D02*
X33333335Y-6787664D01*
X33333335Y-6787664D02*
X33333335Y-6863855D01*
X33676191Y-6140045D02*
X33714287Y-6101950D01*
X33714287Y-6101950D02*
X33790477Y-6063855D01*
X33790477Y-6063855D02*
X33980953Y-6063855D01*
X33980953Y-6063855D02*
X34057144Y-6101950D01*
X34057144Y-6101950D02*
X34095239Y-6140045D01*
X34095239Y-6140045D02*
X34133334Y-6216236D01*
X34133334Y-6216236D02*
X34133334Y-6292426D01*
X34133334Y-6292426D02*
X34095239Y-6406712D01*
X34095239Y-6406712D02*
X33638096Y-6863855D01*
X33638096Y-6863855D02*
X34133334Y-6863855D01*
X34857144Y-6063855D02*
X34476192Y-6063855D01*
X34476192Y-6063855D02*
X34438096Y-6444807D01*
X34438096Y-6444807D02*
X34476192Y-6406712D01*
X34476192Y-6406712D02*
X34552382Y-6368617D01*
X34552382Y-6368617D02*
X34742858Y-6368617D01*
X34742858Y-6368617D02*
X34819049Y-6406712D01*
X34819049Y-6406712D02*
X34857144Y-6444807D01*
X34857144Y-6444807D02*
X34895239Y-6520998D01*
X34895239Y-6520998D02*
X34895239Y-6711474D01*
X34895239Y-6711474D02*
X34857144Y-6787664D01*
X34857144Y-6787664D02*
X34819049Y-6825760D01*
X34819049Y-6825760D02*
X34742858Y-6863855D01*
X34742858Y-6863855D02*
X34552382Y-6863855D01*
X34552382Y-6863855D02*
X34476192Y-6825760D01*
X34476192Y-6825760D02*
X34438096Y-6787664D01*
X35238097Y-6863855D02*
X35238097Y-6330521D01*
X35238097Y-6406712D02*
X35276192Y-6368617D01*
X35276192Y-6368617D02*
X35352382Y-6330521D01*
X35352382Y-6330521D02*
X35466668Y-6330521D01*
X35466668Y-6330521D02*
X35542859Y-6368617D01*
X35542859Y-6368617D02*
X35580954Y-6444807D01*
X35580954Y-6444807D02*
X35580954Y-6863855D01*
X35580954Y-6444807D02*
X35619049Y-6368617D01*
X35619049Y-6368617D02*
X35695240Y-6330521D01*
X35695240Y-6330521D02*
X35809525Y-6330521D01*
X35809525Y-6330521D02*
X35885716Y-6368617D01*
X35885716Y-6368617D02*
X35923811Y-6444807D01*
X35923811Y-6444807D02*
X35923811Y-6863855D01*
X36457145Y-6063855D02*
X36609526Y-6063855D01*
X36609526Y-6063855D02*
X36685716Y-6101950D01*
X36685716Y-6101950D02*
X36761907Y-6178140D01*
X36761907Y-6178140D02*
X36800002Y-6330521D01*
X36800002Y-6330521D02*
X36800002Y-6597188D01*
X36800002Y-6597188D02*
X36761907Y-6749569D01*
X36761907Y-6749569D02*
X36685716Y-6825760D01*
X36685716Y-6825760D02*
X36609526Y-6863855D01*
X36609526Y-6863855D02*
X36457145Y-6863855D01*
X36457145Y-6863855D02*
X36380954Y-6825760D01*
X36380954Y-6825760D02*
X36304764Y-6749569D01*
X36304764Y-6749569D02*
X36266668Y-6597188D01*
X36266668Y-6597188D02*
X36266668Y-6330521D01*
X36266668Y-6330521D02*
X36304764Y-6178140D01*
X36304764Y-6178140D02*
X36380954Y-6101950D01*
X36380954Y-6101950D02*
X36457145Y-6063855D01*
X37142859Y-6863855D02*
X37142859Y-6063855D01*
X37485716Y-6863855D02*
X37485716Y-6444807D01*
X37485716Y-6444807D02*
X37447621Y-6368617D01*
X37447621Y-6368617D02*
X37371430Y-6330521D01*
X37371430Y-6330521D02*
X37257144Y-6330521D01*
X37257144Y-6330521D02*
X37180954Y-6368617D01*
X37180954Y-6368617D02*
X37142859Y-6406712D01*
X37866669Y-6863855D02*
X37866669Y-6330521D01*
X37866669Y-6406712D02*
X37904764Y-6368617D01*
X37904764Y-6368617D02*
X37980954Y-6330521D01*
X37980954Y-6330521D02*
X38095240Y-6330521D01*
X38095240Y-6330521D02*
X38171431Y-6368617D01*
X38171431Y-6368617D02*
X38209526Y-6444807D01*
X38209526Y-6444807D02*
X38209526Y-6863855D01*
X38209526Y-6444807D02*
X38247621Y-6368617D01*
X38247621Y-6368617D02*
X38323812Y-6330521D01*
X38323812Y-6330521D02*
X38438097Y-6330521D01*
X38438097Y-6330521D02*
X38514288Y-6368617D01*
X38514288Y-6368617D02*
X38552383Y-6444807D01*
X38552383Y-6444807D02*
X38552383Y-6863855D01*
X25304762Y-13863855D02*
X25304762Y-13063855D01*
X25304762Y-13063855D02*
X25609524Y-13063855D01*
X25609524Y-13063855D02*
X25685714Y-13101950D01*
X25685714Y-13101950D02*
X25723809Y-13140045D01*
X25723809Y-13140045D02*
X25761905Y-13216236D01*
X25761905Y-13216236D02*
X25761905Y-13330521D01*
X25761905Y-13330521D02*
X25723809Y-13406712D01*
X25723809Y-13406712D02*
X25685714Y-13444807D01*
X25685714Y-13444807D02*
X25609524Y-13482902D01*
X25609524Y-13482902D02*
X25304762Y-13482902D01*
X26104762Y-13863855D02*
X26104762Y-13063855D01*
X26104762Y-13063855D02*
X26371428Y-13635283D01*
X26371428Y-13635283D02*
X26638095Y-13063855D01*
X26638095Y-13063855D02*
X26638095Y-13863855D01*
X27019048Y-13063855D02*
X27019048Y-13711474D01*
X27019048Y-13711474D02*
X27057143Y-13787664D01*
X27057143Y-13787664D02*
X27095238Y-13825760D01*
X27095238Y-13825760D02*
X27171429Y-13863855D01*
X27171429Y-13863855D02*
X27323810Y-13863855D01*
X27323810Y-13863855D02*
X27400000Y-13825760D01*
X27400000Y-13825760D02*
X27438095Y-13787664D01*
X27438095Y-13787664D02*
X27476191Y-13711474D01*
X27476191Y-13711474D02*
X27476191Y-13063855D01*
X28619048Y-13063855D02*
X28771429Y-13063855D01*
X28771429Y-13063855D02*
X28847619Y-13101950D01*
X28847619Y-13101950D02*
X28923810Y-13178140D01*
X28923810Y-13178140D02*
X28961905Y-13330521D01*
X28961905Y-13330521D02*
X28961905Y-13597188D01*
X28961905Y-13597188D02*
X28923810Y-13749569D01*
X28923810Y-13749569D02*
X28847619Y-13825760D01*
X28847619Y-13825760D02*
X28771429Y-13863855D01*
X28771429Y-13863855D02*
X28619048Y-13863855D01*
X28619048Y-13863855D02*
X28542857Y-13825760D01*
X28542857Y-13825760D02*
X28466667Y-13749569D01*
X28466667Y-13749569D02*
X28428571Y-13597188D01*
X28428571Y-13597188D02*
X28428571Y-13330521D01*
X28428571Y-13330521D02*
X28466667Y-13178140D01*
X28466667Y-13178140D02*
X28542857Y-13101950D01*
X28542857Y-13101950D02*
X28619048Y-13063855D01*
X29304762Y-13063855D02*
X29304762Y-13711474D01*
X29304762Y-13711474D02*
X29342857Y-13787664D01*
X29342857Y-13787664D02*
X29380952Y-13825760D01*
X29380952Y-13825760D02*
X29457143Y-13863855D01*
X29457143Y-13863855D02*
X29609524Y-13863855D01*
X29609524Y-13863855D02*
X29685714Y-13825760D01*
X29685714Y-13825760D02*
X29723809Y-13787664D01*
X29723809Y-13787664D02*
X29761905Y-13711474D01*
X29761905Y-13711474D02*
X29761905Y-13063855D01*
X30028571Y-13063855D02*
X30485714Y-13063855D01*
X30257142Y-13863855D02*
X30257142Y-13063855D01*
X31171428Y-13863855D02*
X30714285Y-13863855D01*
X30942857Y-13863855D02*
X30942857Y-13063855D01*
X30942857Y-13063855D02*
X30866666Y-13178140D01*
X30866666Y-13178140D02*
X30790476Y-13254331D01*
X30790476Y-13254331D02*
X30714285Y-13292426D01*
X32276191Y-13063855D02*
X32428572Y-13063855D01*
X32428572Y-13063855D02*
X32504762Y-13101950D01*
X32504762Y-13101950D02*
X32580953Y-13178140D01*
X32580953Y-13178140D02*
X32619048Y-13330521D01*
X32619048Y-13330521D02*
X32619048Y-13597188D01*
X32619048Y-13597188D02*
X32580953Y-13749569D01*
X32580953Y-13749569D02*
X32504762Y-13825760D01*
X32504762Y-13825760D02*
X32428572Y-13863855D01*
X32428572Y-13863855D02*
X32276191Y-13863855D01*
X32276191Y-13863855D02*
X32200000Y-13825760D01*
X32200000Y-13825760D02*
X32123810Y-13749569D01*
X32123810Y-13749569D02*
X32085714Y-13597188D01*
X32085714Y-13597188D02*
X32085714Y-13330521D01*
X32085714Y-13330521D02*
X32123810Y-13178140D01*
X32123810Y-13178140D02*
X32200000Y-13101950D01*
X32200000Y-13101950D02*
X32276191Y-13063855D01*
X33228571Y-13444807D02*
X33342857Y-13482902D01*
X33342857Y-13482902D02*
X33380952Y-13520998D01*
X33380952Y-13520998D02*
X33419048Y-13597188D01*
X33419048Y-13597188D02*
X33419048Y-13711474D01*
X33419048Y-13711474D02*
X33380952Y-13787664D01*
X33380952Y-13787664D02*
X33342857Y-13825760D01*
X33342857Y-13825760D02*
X33266667Y-13863855D01*
X33266667Y-13863855D02*
X32961905Y-13863855D01*
X32961905Y-13863855D02*
X32961905Y-13063855D01*
X32961905Y-13063855D02*
X33228571Y-13063855D01*
X33228571Y-13063855D02*
X33304762Y-13101950D01*
X33304762Y-13101950D02*
X33342857Y-13140045D01*
X33342857Y-13140045D02*
X33380952Y-13216236D01*
X33380952Y-13216236D02*
X33380952Y-13292426D01*
X33380952Y-13292426D02*
X33342857Y-13368617D01*
X33342857Y-13368617D02*
X33304762Y-13406712D01*
X33304762Y-13406712D02*
X33228571Y-13444807D01*
X33228571Y-13444807D02*
X32961905Y-13444807D01*
X33723809Y-13825760D02*
X33838095Y-13863855D01*
X33838095Y-13863855D02*
X34028571Y-13863855D01*
X34028571Y-13863855D02*
X34104762Y-13825760D01*
X34104762Y-13825760D02*
X34142857Y-13787664D01*
X34142857Y-13787664D02*
X34180952Y-13711474D01*
X34180952Y-13711474D02*
X34180952Y-13635283D01*
X34180952Y-13635283D02*
X34142857Y-13559093D01*
X34142857Y-13559093D02*
X34104762Y-13520998D01*
X34104762Y-13520998D02*
X34028571Y-13482902D01*
X34028571Y-13482902D02*
X33876190Y-13444807D01*
X33876190Y-13444807D02*
X33800000Y-13406712D01*
X33800000Y-13406712D02*
X33761905Y-13368617D01*
X33761905Y-13368617D02*
X33723809Y-13292426D01*
X33723809Y-13292426D02*
X33723809Y-13216236D01*
X33723809Y-13216236D02*
X33761905Y-13140045D01*
X33761905Y-13140045D02*
X33800000Y-13101950D01*
X33800000Y-13101950D02*
X33876190Y-13063855D01*
X33876190Y-13063855D02*
X34066667Y-13063855D01*
X34066667Y-13063855D02*
X34180952Y-13101950D01*
X34523810Y-13444807D02*
X34790476Y-13444807D01*
X34904762Y-13863855D02*
X34523810Y-13863855D01*
X34523810Y-13863855D02*
X34523810Y-13063855D01*
X34523810Y-13063855D02*
X34904762Y-13063855D01*
X35704763Y-13863855D02*
X35438096Y-13482902D01*
X35247620Y-13863855D02*
X35247620Y-13063855D01*
X35247620Y-13063855D02*
X35552382Y-13063855D01*
X35552382Y-13063855D02*
X35628572Y-13101950D01*
X35628572Y-13101950D02*
X35666667Y-13140045D01*
X35666667Y-13140045D02*
X35704763Y-13216236D01*
X35704763Y-13216236D02*
X35704763Y-13330521D01*
X35704763Y-13330521D02*
X35666667Y-13406712D01*
X35666667Y-13406712D02*
X35628572Y-13444807D01*
X35628572Y-13444807D02*
X35552382Y-13482902D01*
X35552382Y-13482902D02*
X35247620Y-13482902D01*
X35933334Y-13063855D02*
X36200001Y-13863855D01*
X36200001Y-13863855D02*
X36466667Y-13063855D01*
X36733334Y-13444807D02*
X37000000Y-13444807D01*
X37114286Y-13863855D02*
X36733334Y-13863855D01*
X36733334Y-13863855D02*
X36733334Y-13063855D01*
X36733334Y-13063855D02*
X37114286Y-13063855D01*
X38219049Y-13063855D02*
X38371430Y-13063855D01*
X38371430Y-13063855D02*
X38447620Y-13101950D01*
X38447620Y-13101950D02*
X38523811Y-13178140D01*
X38523811Y-13178140D02*
X38561906Y-13330521D01*
X38561906Y-13330521D02*
X38561906Y-13597188D01*
X38561906Y-13597188D02*
X38523811Y-13749569D01*
X38523811Y-13749569D02*
X38447620Y-13825760D01*
X38447620Y-13825760D02*
X38371430Y-13863855D01*
X38371430Y-13863855D02*
X38219049Y-13863855D01*
X38219049Y-13863855D02*
X38142858Y-13825760D01*
X38142858Y-13825760D02*
X38066668Y-13749569D01*
X38066668Y-13749569D02*
X38028572Y-13597188D01*
X38028572Y-13597188D02*
X38028572Y-13330521D01*
X38028572Y-13330521D02*
X38066668Y-13178140D01*
X38066668Y-13178140D02*
X38142858Y-13101950D01*
X38142858Y-13101950D02*
X38219049Y-13063855D01*
X38904763Y-13863855D02*
X38904763Y-13063855D01*
X38904763Y-13063855D02*
X39361906Y-13863855D01*
X39361906Y-13863855D02*
X39361906Y-13063855D01*
X40123810Y-13863855D02*
X39742858Y-13863855D01*
X39742858Y-13863855D02*
X39742858Y-13063855D01*
X40542858Y-13482902D02*
X40542858Y-13863855D01*
X40276191Y-13063855D02*
X40542858Y-13482902D01*
X40542858Y-13482902D02*
X40809524Y-13063855D01*
X18304762Y-13863855D02*
X18304762Y-13063855D01*
X18304762Y-13063855D02*
X18609524Y-13063855D01*
X18609524Y-13063855D02*
X18685714Y-13101950D01*
X18685714Y-13101950D02*
X18723809Y-13140045D01*
X18723809Y-13140045D02*
X18761905Y-13216236D01*
X18761905Y-13216236D02*
X18761905Y-13330521D01*
X18761905Y-13330521D02*
X18723809Y-13406712D01*
X18723809Y-13406712D02*
X18685714Y-13444807D01*
X18685714Y-13444807D02*
X18609524Y-13482902D01*
X18609524Y-13482902D02*
X18304762Y-13482902D01*
X19104762Y-13863855D02*
X19104762Y-13063855D01*
X19104762Y-13063855D02*
X19371428Y-13635283D01*
X19371428Y-13635283D02*
X19638095Y-13063855D01*
X19638095Y-13063855D02*
X19638095Y-13863855D01*
X20019048Y-13063855D02*
X20019048Y-13711474D01*
X20019048Y-13711474D02*
X20057143Y-13787664D01*
X20057143Y-13787664D02*
X20095238Y-13825760D01*
X20095238Y-13825760D02*
X20171429Y-13863855D01*
X20171429Y-13863855D02*
X20323810Y-13863855D01*
X20323810Y-13863855D02*
X20400000Y-13825760D01*
X20400000Y-13825760D02*
X20438095Y-13787664D01*
X20438095Y-13787664D02*
X20476191Y-13711474D01*
X20476191Y-13711474D02*
X20476191Y-13063855D01*
X21619048Y-13063855D02*
X21771429Y-13063855D01*
X21771429Y-13063855D02*
X21847619Y-13101950D01*
X21847619Y-13101950D02*
X21923810Y-13178140D01*
X21923810Y-13178140D02*
X21961905Y-13330521D01*
X21961905Y-13330521D02*
X21961905Y-13597188D01*
X21961905Y-13597188D02*
X21923810Y-13749569D01*
X21923810Y-13749569D02*
X21847619Y-13825760D01*
X21847619Y-13825760D02*
X21771429Y-13863855D01*
X21771429Y-13863855D02*
X21619048Y-13863855D01*
X21619048Y-13863855D02*
X21542857Y-13825760D01*
X21542857Y-13825760D02*
X21466667Y-13749569D01*
X21466667Y-13749569D02*
X21428571Y-13597188D01*
X21428571Y-13597188D02*
X21428571Y-13330521D01*
X21428571Y-13330521D02*
X21466667Y-13178140D01*
X21466667Y-13178140D02*
X21542857Y-13101950D01*
X21542857Y-13101950D02*
X21619048Y-13063855D01*
X22304762Y-13063855D02*
X22304762Y-13711474D01*
X22304762Y-13711474D02*
X22342857Y-13787664D01*
X22342857Y-13787664D02*
X22380952Y-13825760D01*
X22380952Y-13825760D02*
X22457143Y-13863855D01*
X22457143Y-13863855D02*
X22609524Y-13863855D01*
X22609524Y-13863855D02*
X22685714Y-13825760D01*
X22685714Y-13825760D02*
X22723809Y-13787664D01*
X22723809Y-13787664D02*
X22761905Y-13711474D01*
X22761905Y-13711474D02*
X22761905Y-13063855D01*
X23028571Y-13063855D02*
X23485714Y-13063855D01*
X23257142Y-13863855D02*
X23257142Y-13063855D01*
X23904762Y-13063855D02*
X23980952Y-13063855D01*
X23980952Y-13063855D02*
X24057143Y-13101950D01*
X24057143Y-13101950D02*
X24095238Y-13140045D01*
X24095238Y-13140045D02*
X24133333Y-13216236D01*
X24133333Y-13216236D02*
X24171428Y-13368617D01*
X24171428Y-13368617D02*
X24171428Y-13559093D01*
X24171428Y-13559093D02*
X24133333Y-13711474D01*
X24133333Y-13711474D02*
X24095238Y-13787664D01*
X24095238Y-13787664D02*
X24057143Y-13825760D01*
X24057143Y-13825760D02*
X23980952Y-13863855D01*
X23980952Y-13863855D02*
X23904762Y-13863855D01*
X23904762Y-13863855D02*
X23828571Y-13825760D01*
X23828571Y-13825760D02*
X23790476Y-13787664D01*
X23790476Y-13787664D02*
X23752381Y-13711474D01*
X23752381Y-13711474D02*
X23714285Y-13559093D01*
X23714285Y-13559093D02*
X23714285Y-13368617D01*
X23714285Y-13368617D02*
X23752381Y-13216236D01*
X23752381Y-13216236D02*
X23790476Y-13140045D01*
X23790476Y-13140045D02*
X23828571Y-13101950D01*
X23828571Y-13101950D02*
X23904762Y-13063855D01*
X25276191Y-13063855D02*
X25428572Y-13063855D01*
X25428572Y-13063855D02*
X25504762Y-13101950D01*
X25504762Y-13101950D02*
X25580953Y-13178140D01*
X25580953Y-13178140D02*
X25619048Y-13330521D01*
X25619048Y-13330521D02*
X25619048Y-13597188D01*
X25619048Y-13597188D02*
X25580953Y-13749569D01*
X25580953Y-13749569D02*
X25504762Y-13825760D01*
X25504762Y-13825760D02*
X25428572Y-13863855D01*
X25428572Y-13863855D02*
X25276191Y-13863855D01*
X25276191Y-13863855D02*
X25200000Y-13825760D01*
X25200000Y-13825760D02*
X25123810Y-13749569D01*
X25123810Y-13749569D02*
X25085714Y-13597188D01*
X25085714Y-13597188D02*
X25085714Y-13330521D01*
X25085714Y-13330521D02*
X25123810Y-13178140D01*
X25123810Y-13178140D02*
X25200000Y-13101950D01*
X25200000Y-13101950D02*
X25276191Y-13063855D01*
X26228571Y-13444807D02*
X26342857Y-13482902D01*
X26342857Y-13482902D02*
X26380952Y-13520998D01*
X26380952Y-13520998D02*
X26419048Y-13597188D01*
X26419048Y-13597188D02*
X26419048Y-13711474D01*
X26419048Y-13711474D02*
X26380952Y-13787664D01*
X26380952Y-13787664D02*
X26342857Y-13825760D01*
X26342857Y-13825760D02*
X26266667Y-13863855D01*
X26266667Y-13863855D02*
X25961905Y-13863855D01*
X25961905Y-13863855D02*
X25961905Y-13063855D01*
X25961905Y-13063855D02*
X26228571Y-13063855D01*
X26228571Y-13063855D02*
X26304762Y-13101950D01*
X26304762Y-13101950D02*
X26342857Y-13140045D01*
X26342857Y-13140045D02*
X26380952Y-13216236D01*
X26380952Y-13216236D02*
X26380952Y-13292426D01*
X26380952Y-13292426D02*
X26342857Y-13368617D01*
X26342857Y-13368617D02*
X26304762Y-13406712D01*
X26304762Y-13406712D02*
X26228571Y-13444807D01*
X26228571Y-13444807D02*
X25961905Y-13444807D01*
X26723809Y-13825760D02*
X26838095Y-13863855D01*
X26838095Y-13863855D02*
X27028571Y-13863855D01*
X27028571Y-13863855D02*
X27104762Y-13825760D01*
X27104762Y-13825760D02*
X27142857Y-13787664D01*
X27142857Y-13787664D02*
X27180952Y-13711474D01*
X27180952Y-13711474D02*
X27180952Y-13635283D01*
X27180952Y-13635283D02*
X27142857Y-13559093D01*
X27142857Y-13559093D02*
X27104762Y-13520998D01*
X27104762Y-13520998D02*
X27028571Y-13482902D01*
X27028571Y-13482902D02*
X26876190Y-13444807D01*
X26876190Y-13444807D02*
X26800000Y-13406712D01*
X26800000Y-13406712D02*
X26761905Y-13368617D01*
X26761905Y-13368617D02*
X26723809Y-13292426D01*
X26723809Y-13292426D02*
X26723809Y-13216236D01*
X26723809Y-13216236D02*
X26761905Y-13140045D01*
X26761905Y-13140045D02*
X26800000Y-13101950D01*
X26800000Y-13101950D02*
X26876190Y-13063855D01*
X26876190Y-13063855D02*
X27066667Y-13063855D01*
X27066667Y-13063855D02*
X27180952Y-13101950D01*
X27523810Y-13444807D02*
X27790476Y-13444807D01*
X27904762Y-13863855D02*
X27523810Y-13863855D01*
X27523810Y-13863855D02*
X27523810Y-13063855D01*
X27523810Y-13063855D02*
X27904762Y-13063855D01*
X28704763Y-13863855D02*
X28438096Y-13482902D01*
X28247620Y-13863855D02*
X28247620Y-13063855D01*
X28247620Y-13063855D02*
X28552382Y-13063855D01*
X28552382Y-13063855D02*
X28628572Y-13101950D01*
X28628572Y-13101950D02*
X28666667Y-13140045D01*
X28666667Y-13140045D02*
X28704763Y-13216236D01*
X28704763Y-13216236D02*
X28704763Y-13330521D01*
X28704763Y-13330521D02*
X28666667Y-13406712D01*
X28666667Y-13406712D02*
X28628572Y-13444807D01*
X28628572Y-13444807D02*
X28552382Y-13482902D01*
X28552382Y-13482902D02*
X28247620Y-13482902D01*
X28933334Y-13063855D02*
X29200001Y-13863855D01*
X29200001Y-13863855D02*
X29466667Y-13063855D01*
X29733334Y-13444807D02*
X30000000Y-13444807D01*
X30114286Y-13863855D02*
X29733334Y-13863855D01*
X29733334Y-13863855D02*
X29733334Y-13063855D01*
X29733334Y-13063855D02*
X30114286Y-13063855D01*
X31219049Y-13063855D02*
X31371430Y-13063855D01*
X31371430Y-13063855D02*
X31447620Y-13101950D01*
X31447620Y-13101950D02*
X31523811Y-13178140D01*
X31523811Y-13178140D02*
X31561906Y-13330521D01*
X31561906Y-13330521D02*
X31561906Y-13597188D01*
X31561906Y-13597188D02*
X31523811Y-13749569D01*
X31523811Y-13749569D02*
X31447620Y-13825760D01*
X31447620Y-13825760D02*
X31371430Y-13863855D01*
X31371430Y-13863855D02*
X31219049Y-13863855D01*
X31219049Y-13863855D02*
X31142858Y-13825760D01*
X31142858Y-13825760D02*
X31066668Y-13749569D01*
X31066668Y-13749569D02*
X31028572Y-13597188D01*
X31028572Y-13597188D02*
X31028572Y-13330521D01*
X31028572Y-13330521D02*
X31066668Y-13178140D01*
X31066668Y-13178140D02*
X31142858Y-13101950D01*
X31142858Y-13101950D02*
X31219049Y-13063855D01*
X31904763Y-13863855D02*
X31904763Y-13063855D01*
X31904763Y-13063855D02*
X32361906Y-13863855D01*
X32361906Y-13863855D02*
X32361906Y-13063855D01*
X33123810Y-13863855D02*
X32742858Y-13863855D01*
X32742858Y-13863855D02*
X32742858Y-13063855D01*
X33542858Y-13482902D02*
X33542858Y-13863855D01*
X33276191Y-13063855D02*
X33542858Y-13482902D01*
X33542858Y-13482902D02*
X33809524Y-13063855D01*
D11*
X25547619Y-5657419D02*
X25642857Y-5657419D01*
X25642857Y-5657419D02*
X25738095Y-5705038D01*
X25738095Y-5705038D02*
X25785714Y-5752657D01*
X25785714Y-5752657D02*
X25833333Y-5847895D01*
X25833333Y-5847895D02*
X25880952Y-6038371D01*
X25880952Y-6038371D02*
X25880952Y-6276466D01*
X25880952Y-6276466D02*
X25833333Y-6466942D01*
X25833333Y-6466942D02*
X25785714Y-6562180D01*
X25785714Y-6562180D02*
X25738095Y-6609800D01*
X25738095Y-6609800D02*
X25642857Y-6657419D01*
X25642857Y-6657419D02*
X25547619Y-6657419D01*
X25547619Y-6657419D02*
X25452381Y-6609800D01*
X25452381Y-6609800D02*
X25404762Y-6562180D01*
X25404762Y-6562180D02*
X25357143Y-6466942D01*
X25357143Y-6466942D02*
X25309524Y-6276466D01*
X25309524Y-6276466D02*
X25309524Y-6038371D01*
X25309524Y-6038371D02*
X25357143Y-5847895D01*
X25357143Y-5847895D02*
X25404762Y-5752657D01*
X25404762Y-5752657D02*
X25452381Y-5705038D01*
X25452381Y-5705038D02*
X25547619Y-5657419D01*
X26880952Y-6657419D02*
X26547619Y-6181228D01*
X26309524Y-6657419D02*
X26309524Y-5657419D01*
X26309524Y-5657419D02*
X26690476Y-5657419D01*
X26690476Y-5657419D02*
X26785714Y-5705038D01*
X26785714Y-5705038D02*
X26833333Y-5752657D01*
X26833333Y-5752657D02*
X26880952Y-5847895D01*
X26880952Y-5847895D02*
X26880952Y-5990752D01*
X26880952Y-5990752D02*
X26833333Y-6085990D01*
X26833333Y-6085990D02*
X26785714Y-6133609D01*
X26785714Y-6133609D02*
X26690476Y-6181228D01*
X26690476Y-6181228D02*
X26309524Y-6181228D01*
X28642857Y-6657419D02*
X28309524Y-6181228D01*
X28071429Y-6657419D02*
X28071429Y-5657419D01*
X28071429Y-5657419D02*
X28452381Y-5657419D01*
X28452381Y-5657419D02*
X28547619Y-5705038D01*
X28547619Y-5705038D02*
X28595238Y-5752657D01*
X28595238Y-5752657D02*
X28642857Y-5847895D01*
X28642857Y-5847895D02*
X28642857Y-5990752D01*
X28642857Y-5990752D02*
X28595238Y-6085990D01*
X28595238Y-6085990D02*
X28547619Y-6133609D01*
X28547619Y-6133609D02*
X28452381Y-6181228D01*
X28452381Y-6181228D02*
X28071429Y-6181228D01*
X29071429Y-6657419D02*
X29071429Y-5990752D01*
X29071429Y-6085990D02*
X29119048Y-6038371D01*
X29119048Y-6038371D02*
X29214286Y-5990752D01*
X29214286Y-5990752D02*
X29357143Y-5990752D01*
X29357143Y-5990752D02*
X29452381Y-6038371D01*
X29452381Y-6038371D02*
X29500000Y-6133609D01*
X29500000Y-6133609D02*
X29500000Y-6657419D01*
X29500000Y-6133609D02*
X29547619Y-6038371D01*
X29547619Y-6038371D02*
X29642857Y-5990752D01*
X29642857Y-5990752D02*
X29785714Y-5990752D01*
X29785714Y-5990752D02*
X29880953Y-6038371D01*
X29880953Y-6038371D02*
X29928572Y-6133609D01*
X29928572Y-6133609D02*
X29928572Y-6657419D01*
X30833333Y-6657419D02*
X30833333Y-6133609D01*
X30833333Y-6133609D02*
X30785714Y-6038371D01*
X30785714Y-6038371D02*
X30690476Y-5990752D01*
X30690476Y-5990752D02*
X30500000Y-5990752D01*
X30500000Y-5990752D02*
X30404762Y-6038371D01*
X30833333Y-6609800D02*
X30738095Y-6657419D01*
X30738095Y-6657419D02*
X30500000Y-6657419D01*
X30500000Y-6657419D02*
X30404762Y-6609800D01*
X30404762Y-6609800D02*
X30357143Y-6514561D01*
X30357143Y-6514561D02*
X30357143Y-6419323D01*
X30357143Y-6419323D02*
X30404762Y-6324085D01*
X30404762Y-6324085D02*
X30500000Y-6276466D01*
X30500000Y-6276466D02*
X30738095Y-6276466D01*
X30738095Y-6276466D02*
X30833333Y-6228847D01*
X31214286Y-6657419D02*
X31738095Y-5990752D01*
X31214286Y-5990752D02*
X31738095Y-6657419D01*
X32880953Y-5990752D02*
X32119048Y-6276466D01*
X32119048Y-6276466D02*
X32880953Y-6562180D01*
X33357143Y-6133609D02*
X34119048Y-6133609D01*
X34119048Y-6419323D02*
X33357143Y-6419323D01*
X35071428Y-5657419D02*
X34595238Y-5657419D01*
X34595238Y-5657419D02*
X34547619Y-6133609D01*
X34547619Y-6133609D02*
X34595238Y-6085990D01*
X34595238Y-6085990D02*
X34690476Y-6038371D01*
X34690476Y-6038371D02*
X34928571Y-6038371D01*
X34928571Y-6038371D02*
X35023809Y-6085990D01*
X35023809Y-6085990D02*
X35071428Y-6133609D01*
X35071428Y-6133609D02*
X35119047Y-6228847D01*
X35119047Y-6228847D02*
X35119047Y-6466942D01*
X35119047Y-6466942D02*
X35071428Y-6562180D01*
X35071428Y-6562180D02*
X35023809Y-6609800D01*
X35023809Y-6609800D02*
X34928571Y-6657419D01*
X34928571Y-6657419D02*
X34690476Y-6657419D01*
X34690476Y-6657419D02*
X34595238Y-6609800D01*
X34595238Y-6609800D02*
X34547619Y-6562180D01*
X35738095Y-5657419D02*
X35833333Y-5657419D01*
X35833333Y-5657419D02*
X35928571Y-5705038D01*
X35928571Y-5705038D02*
X35976190Y-5752657D01*
X35976190Y-5752657D02*
X36023809Y-5847895D01*
X36023809Y-5847895D02*
X36071428Y-6038371D01*
X36071428Y-6038371D02*
X36071428Y-6276466D01*
X36071428Y-6276466D02*
X36023809Y-6466942D01*
X36023809Y-6466942D02*
X35976190Y-6562180D01*
X35976190Y-6562180D02*
X35928571Y-6609800D01*
X35928571Y-6609800D02*
X35833333Y-6657419D01*
X35833333Y-6657419D02*
X35738095Y-6657419D01*
X35738095Y-6657419D02*
X35642857Y-6609800D01*
X35642857Y-6609800D02*
X35595238Y-6562180D01*
X35595238Y-6562180D02*
X35547619Y-6466942D01*
X35547619Y-6466942D02*
X35500000Y-6276466D01*
X35500000Y-6276466D02*
X35500000Y-6038371D01*
X35500000Y-6038371D02*
X35547619Y-5847895D01*
X35547619Y-5847895D02*
X35595238Y-5752657D01*
X35595238Y-5752657D02*
X35642857Y-5705038D01*
X35642857Y-5705038D02*
X35738095Y-5657419D01*
X36500000Y-6657419D02*
X36500000Y-5990752D01*
X36500000Y-6085990D02*
X36547619Y-6038371D01*
X36547619Y-6038371D02*
X36642857Y-5990752D01*
X36642857Y-5990752D02*
X36785714Y-5990752D01*
X36785714Y-5990752D02*
X36880952Y-6038371D01*
X36880952Y-6038371D02*
X36928571Y-6133609D01*
X36928571Y-6133609D02*
X36928571Y-6657419D01*
X36928571Y-6133609D02*
X36976190Y-6038371D01*
X36976190Y-6038371D02*
X37071428Y-5990752D01*
X37071428Y-5990752D02*
X37214285Y-5990752D01*
X37214285Y-5990752D02*
X37309524Y-6038371D01*
X37309524Y-6038371D02*
X37357143Y-6133609D01*
X37357143Y-6133609D02*
X37357143Y-6657419D01*
X38023809Y-5657419D02*
X38214285Y-5657419D01*
X38214285Y-5657419D02*
X38309523Y-5705038D01*
X38309523Y-5705038D02*
X38404761Y-5800276D01*
X38404761Y-5800276D02*
X38452380Y-5990752D01*
X38452380Y-5990752D02*
X38452380Y-6324085D01*
X38452380Y-6324085D02*
X38404761Y-6514561D01*
X38404761Y-6514561D02*
X38309523Y-6609800D01*
X38309523Y-6609800D02*
X38214285Y-6657419D01*
X38214285Y-6657419D02*
X38023809Y-6657419D01*
X38023809Y-6657419D02*
X37928571Y-6609800D01*
X37928571Y-6609800D02*
X37833333Y-6514561D01*
X37833333Y-6514561D02*
X37785714Y-6324085D01*
X37785714Y-6324085D02*
X37785714Y-5990752D01*
X37785714Y-5990752D02*
X37833333Y-5800276D01*
X37833333Y-5800276D02*
X37928571Y-5705038D01*
X37928571Y-5705038D02*
X38023809Y-5657419D01*
X38880952Y-6657419D02*
X38880952Y-5657419D01*
X39309523Y-6657419D02*
X39309523Y-6133609D01*
X39309523Y-6133609D02*
X39261904Y-6038371D01*
X39261904Y-6038371D02*
X39166666Y-5990752D01*
X39166666Y-5990752D02*
X39023809Y-5990752D01*
X39023809Y-5990752D02*
X38928571Y-6038371D01*
X38928571Y-6038371D02*
X38880952Y-6085990D01*
X39785714Y-6657419D02*
X39785714Y-5990752D01*
X39785714Y-6085990D02*
X39833333Y-6038371D01*
X39833333Y-6038371D02*
X39928571Y-5990752D01*
X39928571Y-5990752D02*
X40071428Y-5990752D01*
X40071428Y-5990752D02*
X40166666Y-6038371D01*
X40166666Y-6038371D02*
X40214285Y-6133609D01*
X40214285Y-6133609D02*
X40214285Y-6657419D01*
X40214285Y-6133609D02*
X40261904Y-6038371D01*
X40261904Y-6038371D02*
X40357142Y-5990752D01*
X40357142Y-5990752D02*
X40499999Y-5990752D01*
X40499999Y-5990752D02*
X40595238Y-6038371D01*
X40595238Y-6038371D02*
X40642857Y-6133609D01*
X40642857Y-6133609D02*
X40642857Y-6657419D01*
D12*
X17578809Y-4579726D02*
X17155475Y-3974964D01*
X16853094Y-4579726D02*
X16853094Y-3309726D01*
X16853094Y-3309726D02*
X17336904Y-3309726D01*
X17336904Y-3309726D02*
X17457856Y-3370202D01*
X17457856Y-3370202D02*
X17518333Y-3430678D01*
X17518333Y-3430678D02*
X17578809Y-3551630D01*
X17578809Y-3551630D02*
X17578809Y-3733059D01*
X17578809Y-3733059D02*
X17518333Y-3854011D01*
X17518333Y-3854011D02*
X17457856Y-3914488D01*
X17457856Y-3914488D02*
X17336904Y-3974964D01*
X17336904Y-3974964D02*
X16853094Y-3974964D01*
X18062618Y-3430678D02*
X18123094Y-3370202D01*
X18123094Y-3370202D02*
X18244047Y-3309726D01*
X18244047Y-3309726D02*
X18546428Y-3309726D01*
X18546428Y-3309726D02*
X18667380Y-3370202D01*
X18667380Y-3370202D02*
X18727856Y-3430678D01*
X18727856Y-3430678D02*
X18788333Y-3551630D01*
X18788333Y-3551630D02*
X18788333Y-3672583D01*
X18788333Y-3672583D02*
X18727856Y-3854011D01*
X18727856Y-3854011D02*
X18002142Y-4579726D01*
X18002142Y-4579726D02*
X18788333Y-4579726D01*
X19574523Y-3309726D02*
X19695476Y-3309726D01*
X19695476Y-3309726D02*
X19816428Y-3370202D01*
X19816428Y-3370202D02*
X19876904Y-3430678D01*
X19876904Y-3430678D02*
X19937380Y-3551630D01*
X19937380Y-3551630D02*
X19997857Y-3793535D01*
X19997857Y-3793535D02*
X19997857Y-4095916D01*
X19997857Y-4095916D02*
X19937380Y-4337821D01*
X19937380Y-4337821D02*
X19876904Y-4458773D01*
X19876904Y-4458773D02*
X19816428Y-4519250D01*
X19816428Y-4519250D02*
X19695476Y-4579726D01*
X19695476Y-4579726D02*
X19574523Y-4579726D01*
X19574523Y-4579726D02*
X19453571Y-4519250D01*
X19453571Y-4519250D02*
X19393095Y-4458773D01*
X19393095Y-4458773D02*
X19332618Y-4337821D01*
X19332618Y-4337821D02*
X19272142Y-4095916D01*
X19272142Y-4095916D02*
X19272142Y-3793535D01*
X19272142Y-3793535D02*
X19332618Y-3551630D01*
X19332618Y-3551630D02*
X19393095Y-3430678D01*
X19393095Y-3430678D02*
X19453571Y-3370202D01*
X19453571Y-3370202D02*
X19574523Y-3309726D01*
X21086428Y-3309726D02*
X20844523Y-3309726D01*
X20844523Y-3309726D02*
X20723571Y-3370202D01*
X20723571Y-3370202D02*
X20663095Y-3430678D01*
X20663095Y-3430678D02*
X20542142Y-3612107D01*
X20542142Y-3612107D02*
X20481666Y-3854011D01*
X20481666Y-3854011D02*
X20481666Y-4337821D01*
X20481666Y-4337821D02*
X20542142Y-4458773D01*
X20542142Y-4458773D02*
X20602619Y-4519250D01*
X20602619Y-4519250D02*
X20723571Y-4579726D01*
X20723571Y-4579726D02*
X20965476Y-4579726D01*
X20965476Y-4579726D02*
X21086428Y-4519250D01*
X21086428Y-4519250D02*
X21146904Y-4458773D01*
X21146904Y-4458773D02*
X21207381Y-4337821D01*
X21207381Y-4337821D02*
X21207381Y-4035440D01*
X21207381Y-4035440D02*
X21146904Y-3914488D01*
X21146904Y-3914488D02*
X21086428Y-3854011D01*
X21086428Y-3854011D02*
X20965476Y-3793535D01*
X20965476Y-3793535D02*
X20723571Y-3793535D01*
X20723571Y-3793535D02*
X20602619Y-3854011D01*
X20602619Y-3854011D02*
X20542142Y-3914488D01*
X20542142Y-3914488D02*
X20481666Y-4035440D01*
D11*
X1119047Y-12657419D02*
X1214285Y-12657419D01*
X1214285Y-12657419D02*
X1309523Y-12705038D01*
X1309523Y-12705038D02*
X1357142Y-12752657D01*
X1357142Y-12752657D02*
X1404761Y-12847895D01*
X1404761Y-12847895D02*
X1452380Y-13038371D01*
X1452380Y-13038371D02*
X1452380Y-13276466D01*
X1452380Y-13276466D02*
X1404761Y-13466942D01*
X1404761Y-13466942D02*
X1357142Y-13562180D01*
X1357142Y-13562180D02*
X1309523Y-13609800D01*
X1309523Y-13609800D02*
X1214285Y-13657419D01*
X1214285Y-13657419D02*
X1119047Y-13657419D01*
X1119047Y-13657419D02*
X1023809Y-13609800D01*
X1023809Y-13609800D02*
X976190Y-13562180D01*
X976190Y-13562180D02*
X928571Y-13466942D01*
X928571Y-13466942D02*
X880952Y-13276466D01*
X880952Y-13276466D02*
X880952Y-13038371D01*
X880952Y-13038371D02*
X928571Y-12847895D01*
X928571Y-12847895D02*
X976190Y-12752657D01*
X976190Y-12752657D02*
X1023809Y-12705038D01*
X1023809Y-12705038D02*
X1119047Y-12657419D01*
X2452380Y-13657419D02*
X2119047Y-13181228D01*
X1880952Y-13657419D02*
X1880952Y-12657419D01*
X1880952Y-12657419D02*
X2261904Y-12657419D01*
X2261904Y-12657419D02*
X2357142Y-12705038D01*
X2357142Y-12705038D02*
X2404761Y-12752657D01*
X2404761Y-12752657D02*
X2452380Y-12847895D01*
X2452380Y-12847895D02*
X2452380Y-12990752D01*
X2452380Y-12990752D02*
X2404761Y-13085990D01*
X2404761Y-13085990D02*
X2357142Y-13133609D01*
X2357142Y-13133609D02*
X2261904Y-13181228D01*
X2261904Y-13181228D02*
X1880952Y-13181228D01*
X4309523Y-13752657D02*
X4214285Y-13705038D01*
X4214285Y-13705038D02*
X4119047Y-13609800D01*
X4119047Y-13609800D02*
X3976190Y-13466942D01*
X3976190Y-13466942D02*
X3880952Y-13419323D01*
X3880952Y-13419323D02*
X3785714Y-13419323D01*
X3833333Y-13657419D02*
X3738095Y-13609800D01*
X3738095Y-13609800D02*
X3642857Y-13514561D01*
X3642857Y-13514561D02*
X3595238Y-13324085D01*
X3595238Y-13324085D02*
X3595238Y-12990752D01*
X3595238Y-12990752D02*
X3642857Y-12800276D01*
X3642857Y-12800276D02*
X3738095Y-12705038D01*
X3738095Y-12705038D02*
X3833333Y-12657419D01*
X3833333Y-12657419D02*
X4023809Y-12657419D01*
X4023809Y-12657419D02*
X4119047Y-12705038D01*
X4119047Y-12705038D02*
X4214285Y-12800276D01*
X4214285Y-12800276D02*
X4261904Y-12990752D01*
X4261904Y-12990752D02*
X4261904Y-13324085D01*
X4261904Y-13324085D02*
X4214285Y-13514561D01*
X4214285Y-13514561D02*
X4119047Y-13609800D01*
X4119047Y-13609800D02*
X4023809Y-13657419D01*
X4023809Y-13657419D02*
X3833333Y-13657419D01*
X4690476Y-12657419D02*
X4690476Y-13466942D01*
X4690476Y-13466942D02*
X4738095Y-13562180D01*
X4738095Y-13562180D02*
X4785714Y-13609800D01*
X4785714Y-13609800D02*
X4880952Y-13657419D01*
X4880952Y-13657419D02*
X5071428Y-13657419D01*
X5071428Y-13657419D02*
X5166666Y-13609800D01*
X5166666Y-13609800D02*
X5214285Y-13562180D01*
X5214285Y-13562180D02*
X5261904Y-13466942D01*
X5261904Y-13466942D02*
X5261904Y-12657419D01*
X5690476Y-13371704D02*
X6166666Y-13371704D01*
X5595238Y-13657419D02*
X5928571Y-12657419D01*
X5928571Y-12657419D02*
X6261904Y-13657419D01*
X7071428Y-13657419D02*
X6595238Y-13657419D01*
X6595238Y-13657419D02*
X6595238Y-12657419D01*
X7404762Y-13657419D02*
X7404762Y-12657419D01*
X8214285Y-13133609D02*
X7880952Y-13133609D01*
X7880952Y-13657419D02*
X7880952Y-12657419D01*
X7880952Y-12657419D02*
X8357142Y-12657419D01*
X8738095Y-13657419D02*
X8738095Y-12657419D01*
X9785713Y-13562180D02*
X9738094Y-13609800D01*
X9738094Y-13609800D02*
X9595237Y-13657419D01*
X9595237Y-13657419D02*
X9499999Y-13657419D01*
X9499999Y-13657419D02*
X9357142Y-13609800D01*
X9357142Y-13609800D02*
X9261904Y-13514561D01*
X9261904Y-13514561D02*
X9214285Y-13419323D01*
X9214285Y-13419323D02*
X9166666Y-13228847D01*
X9166666Y-13228847D02*
X9166666Y-13085990D01*
X9166666Y-13085990D02*
X9214285Y-12895514D01*
X9214285Y-12895514D02*
X9261904Y-12800276D01*
X9261904Y-12800276D02*
X9357142Y-12705038D01*
X9357142Y-12705038D02*
X9499999Y-12657419D01*
X9499999Y-12657419D02*
X9595237Y-12657419D01*
X9595237Y-12657419D02*
X9738094Y-12705038D01*
X9738094Y-12705038D02*
X9785713Y-12752657D01*
X10166666Y-13371704D02*
X10642856Y-13371704D01*
X10071428Y-13657419D02*
X10404761Y-12657419D01*
X10404761Y-12657419D02*
X10738094Y-13657419D01*
X10928571Y-12657419D02*
X11499999Y-12657419D01*
X11214285Y-13657419D02*
X11214285Y-12657419D01*
X11833333Y-13657419D02*
X11833333Y-12657419D01*
X12499999Y-12657419D02*
X12690475Y-12657419D01*
X12690475Y-12657419D02*
X12785713Y-12705038D01*
X12785713Y-12705038D02*
X12880951Y-12800276D01*
X12880951Y-12800276D02*
X12928570Y-12990752D01*
X12928570Y-12990752D02*
X12928570Y-13324085D01*
X12928570Y-13324085D02*
X12880951Y-13514561D01*
X12880951Y-13514561D02*
X12785713Y-13609800D01*
X12785713Y-13609800D02*
X12690475Y-13657419D01*
X12690475Y-13657419D02*
X12499999Y-13657419D01*
X12499999Y-13657419D02*
X12404761Y-13609800D01*
X12404761Y-13609800D02*
X12309523Y-13514561D01*
X12309523Y-13514561D02*
X12261904Y-13324085D01*
X12261904Y-13324085D02*
X12261904Y-12990752D01*
X12261904Y-12990752D02*
X12309523Y-12800276D01*
X12309523Y-12800276D02*
X12404761Y-12705038D01*
X12404761Y-12705038D02*
X12499999Y-12657419D01*
X13357142Y-13657419D02*
X13357142Y-12657419D01*
X13357142Y-12657419D02*
X13928570Y-13657419D01*
X13928570Y-13657419D02*
X13928570Y-12657419D01*
X15119047Y-13609800D02*
X15261904Y-13657419D01*
X15261904Y-13657419D02*
X15499999Y-13657419D01*
X15499999Y-13657419D02*
X15595237Y-13609800D01*
X15595237Y-13609800D02*
X15642856Y-13562180D01*
X15642856Y-13562180D02*
X15690475Y-13466942D01*
X15690475Y-13466942D02*
X15690475Y-13371704D01*
X15690475Y-13371704D02*
X15642856Y-13276466D01*
X15642856Y-13276466D02*
X15595237Y-13228847D01*
X15595237Y-13228847D02*
X15499999Y-13181228D01*
X15499999Y-13181228D02*
X15309523Y-13133609D01*
X15309523Y-13133609D02*
X15214285Y-13085990D01*
X15214285Y-13085990D02*
X15166666Y-13038371D01*
X15166666Y-13038371D02*
X15119047Y-12943133D01*
X15119047Y-12943133D02*
X15119047Y-12847895D01*
X15119047Y-12847895D02*
X15166666Y-12752657D01*
X15166666Y-12752657D02*
X15214285Y-12705038D01*
X15214285Y-12705038D02*
X15309523Y-12657419D01*
X15309523Y-12657419D02*
X15547618Y-12657419D01*
X15547618Y-12657419D02*
X15690475Y-12705038D01*
X15976190Y-12657419D02*
X16547618Y-12657419D01*
X16261904Y-13657419D02*
X16261904Y-12657419D01*
X17452380Y-13657419D02*
X17119047Y-13181228D01*
X16880952Y-13657419D02*
X16880952Y-12657419D01*
X16880952Y-12657419D02*
X17261904Y-12657419D01*
X17261904Y-12657419D02*
X17357142Y-12705038D01*
X17357142Y-12705038D02*
X17404761Y-12752657D01*
X17404761Y-12752657D02*
X17452380Y-12847895D01*
X17452380Y-12847895D02*
X17452380Y-12990752D01*
X17452380Y-12990752D02*
X17404761Y-13085990D01*
X17404761Y-13085990D02*
X17357142Y-13133609D01*
X17357142Y-13133609D02*
X17261904Y-13181228D01*
X17261904Y-13181228D02*
X16880952Y-13181228D01*
X17833333Y-13371704D02*
X18309523Y-13371704D01*
X17738095Y-13657419D02*
X18071428Y-12657419D01*
X18071428Y-12657419D02*
X18404761Y-13657419D01*
X18738095Y-13657419D02*
X18738095Y-12657419D01*
X18738095Y-12657419D02*
X19119047Y-12657419D01*
X19119047Y-12657419D02*
X19214285Y-12705038D01*
X19214285Y-12705038D02*
X19261904Y-12752657D01*
X19261904Y-12752657D02*
X19309523Y-12847895D01*
X19309523Y-12847895D02*
X19309523Y-12990752D01*
X19309523Y-12990752D02*
X19261904Y-13085990D01*
X19261904Y-13085990D02*
X19214285Y-13133609D01*
X19214285Y-13133609D02*
X19119047Y-13181228D01*
X19119047Y-13181228D02*
X18738095Y-13181228D01*
X20500000Y-13657419D02*
X20500000Y-12657419D01*
X20500000Y-12657419D02*
X20738095Y-12657419D01*
X20738095Y-12657419D02*
X20880952Y-12705038D01*
X20880952Y-12705038D02*
X20976190Y-12800276D01*
X20976190Y-12800276D02*
X21023809Y-12895514D01*
X21023809Y-12895514D02*
X21071428Y-13085990D01*
X21071428Y-13085990D02*
X21071428Y-13228847D01*
X21071428Y-13228847D02*
X21023809Y-13419323D01*
X21023809Y-13419323D02*
X20976190Y-13514561D01*
X20976190Y-13514561D02*
X20880952Y-13609800D01*
X20880952Y-13609800D02*
X20738095Y-13657419D01*
X20738095Y-13657419D02*
X20500000Y-13657419D01*
X21500000Y-13657419D02*
X21500000Y-12657419D01*
X21500000Y-12657419D02*
X22071428Y-13657419D01*
X22071428Y-13657419D02*
X22071428Y-12657419D01*
X22547619Y-13657419D02*
X22547619Y-12657419D01*
X22547619Y-12657419D02*
X22928571Y-12657419D01*
X22928571Y-12657419D02*
X23023809Y-12705038D01*
X23023809Y-12705038D02*
X23071428Y-12752657D01*
X23071428Y-12752657D02*
X23119047Y-12847895D01*
X23119047Y-12847895D02*
X23119047Y-12990752D01*
X23119047Y-12990752D02*
X23071428Y-13085990D01*
X23071428Y-13085990D02*
X23023809Y-13133609D01*
X23023809Y-13133609D02*
X22928571Y-13181228D01*
X22928571Y-13181228D02*
X22547619Y-13181228D01*
X-5214286Y-12657419D02*
X-5119048Y-12657419D01*
X-5119048Y-12657419D02*
X-5023810Y-12705038D01*
X-5023810Y-12705038D02*
X-4976191Y-12752657D01*
X-4976191Y-12752657D02*
X-4928572Y-12847895D01*
X-4928572Y-12847895D02*
X-4880953Y-13038371D01*
X-4880953Y-13038371D02*
X-4880953Y-13276466D01*
X-4880953Y-13276466D02*
X-4928572Y-13466942D01*
X-4928572Y-13466942D02*
X-4976191Y-13562180D01*
X-4976191Y-13562180D02*
X-5023810Y-13609800D01*
X-5023810Y-13609800D02*
X-5119048Y-13657419D01*
X-5119048Y-13657419D02*
X-5214286Y-13657419D01*
X-5214286Y-13657419D02*
X-5309524Y-13609800D01*
X-5309524Y-13609800D02*
X-5357143Y-13562180D01*
X-5357143Y-13562180D02*
X-5404762Y-13466942D01*
X-5404762Y-13466942D02*
X-5452381Y-13276466D01*
X-5452381Y-13276466D02*
X-5452381Y-13038371D01*
X-5452381Y-13038371D02*
X-5404762Y-12847895D01*
X-5404762Y-12847895D02*
X-5357143Y-12752657D01*
X-5357143Y-12752657D02*
X-5309524Y-12705038D01*
X-5309524Y-12705038D02*
X-5214286Y-12657419D01*
X-3880953Y-13657419D02*
X-4214286Y-13181228D01*
X-4452381Y-13657419D02*
X-4452381Y-12657419D01*
X-4452381Y-12657419D02*
X-4071429Y-12657419D01*
X-4071429Y-12657419D02*
X-3976191Y-12705038D01*
X-3976191Y-12705038D02*
X-3928572Y-12752657D01*
X-3928572Y-12752657D02*
X-3880953Y-12847895D01*
X-3880953Y-12847895D02*
X-3880953Y-12990752D01*
X-3880953Y-12990752D02*
X-3928572Y-13085990D01*
X-3928572Y-13085990D02*
X-3976191Y-13133609D01*
X-3976191Y-13133609D02*
X-4071429Y-13181228D01*
X-4071429Y-13181228D02*
X-4452381Y-13181228D01*
X-2690476Y-13657419D02*
X-2690476Y-12657419D01*
X-2690476Y-12657419D02*
X-2309524Y-12657419D01*
X-2309524Y-12657419D02*
X-2214286Y-12705038D01*
X-2214286Y-12705038D02*
X-2166667Y-12752657D01*
X-2166667Y-12752657D02*
X-2119048Y-12847895D01*
X-2119048Y-12847895D02*
X-2119048Y-12990752D01*
X-2119048Y-12990752D02*
X-2166667Y-13085990D01*
X-2166667Y-13085990D02*
X-2214286Y-13133609D01*
X-2214286Y-13133609D02*
X-2309524Y-13181228D01*
X-2309524Y-13181228D02*
X-2690476Y-13181228D01*
X-1690476Y-13657419D02*
X-1690476Y-12657419D01*
X-1690476Y-12657419D02*
X-1357143Y-13371704D01*
X-1357143Y-13371704D02*
X-1023810Y-12657419D01*
X-1023810Y-12657419D02*
X-1023810Y-13657419D01*
X-547619Y-12657419D02*
X-547619Y-13466942D01*
X-547619Y-13466942D02*
X-500000Y-13562180D01*
X-500000Y-13562180D02*
X-452381Y-13609800D01*
X-452381Y-13609800D02*
X-357143Y-13657419D01*
X-357143Y-13657419D02*
X-166667Y-13657419D01*
X-166667Y-13657419D02*
X-71429Y-13609800D01*
X-71429Y-13609800D02*
X-23810Y-13562180D01*
X-23810Y-13562180D02*
X23808Y-13466942D01*
X23808Y-13466942D02*
X23808Y-12657419D01*
X1214285Y-13371704D02*
X1690475Y-13371704D01*
X1119047Y-13657419D02*
X1452380Y-12657419D01*
X1452380Y-12657419D02*
X1785713Y-13657419D01*
X2119047Y-12657419D02*
X2119047Y-13466942D01*
X2119047Y-13466942D02*
X2166666Y-13562180D01*
X2166666Y-13562180D02*
X2214285Y-13609800D01*
X2214285Y-13609800D02*
X2309523Y-13657419D01*
X2309523Y-13657419D02*
X2499999Y-13657419D01*
X2499999Y-13657419D02*
X2595237Y-13609800D01*
X2595237Y-13609800D02*
X2642856Y-13562180D01*
X2642856Y-13562180D02*
X2690475Y-13466942D01*
X2690475Y-13466942D02*
X2690475Y-12657419D01*
X3023809Y-12657419D02*
X3595237Y-12657419D01*
X3309523Y-13657419D02*
X3309523Y-12657419D01*
X4119047Y-12657419D02*
X4309523Y-12657419D01*
X4309523Y-12657419D02*
X4404761Y-12705038D01*
X4404761Y-12705038D02*
X4499999Y-12800276D01*
X4499999Y-12800276D02*
X4547618Y-12990752D01*
X4547618Y-12990752D02*
X4547618Y-13324085D01*
X4547618Y-13324085D02*
X4499999Y-13514561D01*
X4499999Y-13514561D02*
X4404761Y-13609800D01*
X4404761Y-13609800D02*
X4309523Y-13657419D01*
X4309523Y-13657419D02*
X4119047Y-13657419D01*
X4119047Y-13657419D02*
X4023809Y-13609800D01*
X4023809Y-13609800D02*
X3928571Y-13514561D01*
X3928571Y-13514561D02*
X3880952Y-13324085D01*
X3880952Y-13324085D02*
X3880952Y-12990752D01*
X3880952Y-12990752D02*
X3928571Y-12800276D01*
X3928571Y-12800276D02*
X4023809Y-12705038D01*
X4023809Y-12705038D02*
X4119047Y-12657419D01*
X4976190Y-13276466D02*
X5738095Y-13276466D01*
X6166666Y-13609800D02*
X6309523Y-13657419D01*
X6309523Y-13657419D02*
X6547618Y-13657419D01*
X6547618Y-13657419D02*
X6642856Y-13609800D01*
X6642856Y-13609800D02*
X6690475Y-13562180D01*
X6690475Y-13562180D02*
X6738094Y-13466942D01*
X6738094Y-13466942D02*
X6738094Y-13371704D01*
X6738094Y-13371704D02*
X6690475Y-13276466D01*
X6690475Y-13276466D02*
X6642856Y-13228847D01*
X6642856Y-13228847D02*
X6547618Y-13181228D01*
X6547618Y-13181228D02*
X6357142Y-13133609D01*
X6357142Y-13133609D02*
X6261904Y-13085990D01*
X6261904Y-13085990D02*
X6214285Y-13038371D01*
X6214285Y-13038371D02*
X6166666Y-12943133D01*
X6166666Y-12943133D02*
X6166666Y-12847895D01*
X6166666Y-12847895D02*
X6214285Y-12752657D01*
X6214285Y-12752657D02*
X6261904Y-12705038D01*
X6261904Y-12705038D02*
X6357142Y-12657419D01*
X6357142Y-12657419D02*
X6595237Y-12657419D01*
X6595237Y-12657419D02*
X6738094Y-12705038D01*
X7023809Y-12657419D02*
X7595237Y-12657419D01*
X7309523Y-13657419D02*
X7309523Y-12657419D01*
X7880952Y-13371704D02*
X8357142Y-13371704D01*
X7785714Y-13657419D02*
X8119047Y-12657419D01*
X8119047Y-12657419D02*
X8452380Y-13657419D01*
X9357142Y-13657419D02*
X9023809Y-13181228D01*
X8785714Y-13657419D02*
X8785714Y-12657419D01*
X8785714Y-12657419D02*
X9166666Y-12657419D01*
X9166666Y-12657419D02*
X9261904Y-12705038D01*
X9261904Y-12705038D02*
X9309523Y-12752657D01*
X9309523Y-12752657D02*
X9357142Y-12847895D01*
X9357142Y-12847895D02*
X9357142Y-12990752D01*
X9357142Y-12990752D02*
X9309523Y-13085990D01*
X9309523Y-13085990D02*
X9261904Y-13133609D01*
X9261904Y-13133609D02*
X9166666Y-13181228D01*
X9166666Y-13181228D02*
X8785714Y-13181228D01*
X9642857Y-12657419D02*
X10214285Y-12657419D01*
X9928571Y-13657419D02*
X9928571Y-12657419D01*
X11261905Y-13609800D02*
X11404762Y-13657419D01*
X11404762Y-13657419D02*
X11642857Y-13657419D01*
X11642857Y-13657419D02*
X11738095Y-13609800D01*
X11738095Y-13609800D02*
X11785714Y-13562180D01*
X11785714Y-13562180D02*
X11833333Y-13466942D01*
X11833333Y-13466942D02*
X11833333Y-13371704D01*
X11833333Y-13371704D02*
X11785714Y-13276466D01*
X11785714Y-13276466D02*
X11738095Y-13228847D01*
X11738095Y-13228847D02*
X11642857Y-13181228D01*
X11642857Y-13181228D02*
X11452381Y-13133609D01*
X11452381Y-13133609D02*
X11357143Y-13085990D01*
X11357143Y-13085990D02*
X11309524Y-13038371D01*
X11309524Y-13038371D02*
X11261905Y-12943133D01*
X11261905Y-12943133D02*
X11261905Y-12847895D01*
X11261905Y-12847895D02*
X11309524Y-12752657D01*
X11309524Y-12752657D02*
X11357143Y-12705038D01*
X11357143Y-12705038D02*
X11452381Y-12657419D01*
X11452381Y-12657419D02*
X11690476Y-12657419D01*
X11690476Y-12657419D02*
X11833333Y-12705038D01*
X12119048Y-12657419D02*
X12690476Y-12657419D01*
X12404762Y-13657419D02*
X12404762Y-12657419D01*
X13595238Y-13657419D02*
X13261905Y-13181228D01*
X13023810Y-13657419D02*
X13023810Y-12657419D01*
X13023810Y-12657419D02*
X13404762Y-12657419D01*
X13404762Y-12657419D02*
X13500000Y-12705038D01*
X13500000Y-12705038D02*
X13547619Y-12752657D01*
X13547619Y-12752657D02*
X13595238Y-12847895D01*
X13595238Y-12847895D02*
X13595238Y-12990752D01*
X13595238Y-12990752D02*
X13547619Y-13085990D01*
X13547619Y-13085990D02*
X13500000Y-13133609D01*
X13500000Y-13133609D02*
X13404762Y-13181228D01*
X13404762Y-13181228D02*
X13023810Y-13181228D01*
X13976191Y-13371704D02*
X14452381Y-13371704D01*
X13880953Y-13657419D02*
X14214286Y-12657419D01*
X14214286Y-12657419D02*
X14547619Y-13657419D01*
X14880953Y-13657419D02*
X14880953Y-12657419D01*
X14880953Y-12657419D02*
X15261905Y-12657419D01*
X15261905Y-12657419D02*
X15357143Y-12705038D01*
X15357143Y-12705038D02*
X15404762Y-12752657D01*
X15404762Y-12752657D02*
X15452381Y-12847895D01*
X15452381Y-12847895D02*
X15452381Y-12990752D01*
X15452381Y-12990752D02*
X15404762Y-13085990D01*
X15404762Y-13085990D02*
X15357143Y-13133609D01*
X15357143Y-13133609D02*
X15261905Y-13181228D01*
X15261905Y-13181228D02*
X14880953Y-13181228D01*
D10*
X6142855Y-13063855D02*
X6219045Y-13063855D01*
X6219045Y-13063855D02*
X6295236Y-13101950D01*
X6295236Y-13101950D02*
X6333331Y-13140045D01*
X6333331Y-13140045D02*
X6371426Y-13216236D01*
X6371426Y-13216236D02*
X6409521Y-13368617D01*
X6409521Y-13368617D02*
X6409521Y-13559093D01*
X6409521Y-13559093D02*
X6371426Y-13711474D01*
X6371426Y-13711474D02*
X6333331Y-13787664D01*
X6333331Y-13787664D02*
X6295236Y-13825760D01*
X6295236Y-13825760D02*
X6219045Y-13863855D01*
X6219045Y-13863855D02*
X6142855Y-13863855D01*
X6142855Y-13863855D02*
X6066664Y-13825760D01*
X6066664Y-13825760D02*
X6028569Y-13787664D01*
X6028569Y-13787664D02*
X5990474Y-13711474D01*
X5990474Y-13711474D02*
X5952378Y-13559093D01*
X5952378Y-13559093D02*
X5952378Y-13368617D01*
X5952378Y-13368617D02*
X5990474Y-13216236D01*
X5990474Y-13216236D02*
X6028569Y-13140045D01*
X6028569Y-13140045D02*
X6066664Y-13101950D01*
X6066664Y-13101950D02*
X6142855Y-13063855D01*
X7209522Y-13863855D02*
X6942855Y-13482902D01*
X6752379Y-13863855D02*
X6752379Y-13063855D01*
X6752379Y-13063855D02*
X7057141Y-13063855D01*
X7057141Y-13063855D02*
X7133331Y-13101950D01*
X7133331Y-13101950D02*
X7171426Y-13140045D01*
X7171426Y-13140045D02*
X7209522Y-13216236D01*
X7209522Y-13216236D02*
X7209522Y-13330521D01*
X7209522Y-13330521D02*
X7171426Y-13406712D01*
X7171426Y-13406712D02*
X7133331Y-13444807D01*
X7133331Y-13444807D02*
X7057141Y-13482902D01*
X7057141Y-13482902D02*
X6752379Y-13482902D01*
X8085712Y-13063855D02*
X8276188Y-13863855D01*
X8276188Y-13863855D02*
X8428569Y-13292426D01*
X8428569Y-13292426D02*
X8580950Y-13863855D01*
X8580950Y-13863855D02*
X8771427Y-13063855D01*
X9342855Y-13444807D02*
X9076189Y-13444807D01*
X9076189Y-13863855D02*
X9076189Y-13063855D01*
X9076189Y-13063855D02*
X9457141Y-13063855D01*
X9685712Y-13063855D02*
X10219046Y-13063855D01*
X10219046Y-13063855D02*
X9685712Y-13863855D01*
X9685712Y-13863855D02*
X10219046Y-13863855D01*
X10676189Y-13063855D02*
X10752379Y-13063855D01*
X10752379Y-13063855D02*
X10828570Y-13101950D01*
X10828570Y-13101950D02*
X10866665Y-13140045D01*
X10866665Y-13140045D02*
X10904760Y-13216236D01*
X10904760Y-13216236D02*
X10942855Y-13368617D01*
X10942855Y-13368617D02*
X10942855Y-13559093D01*
X10942855Y-13559093D02*
X10904760Y-13711474D01*
X10904760Y-13711474D02*
X10866665Y-13787664D01*
X10866665Y-13787664D02*
X10828570Y-13825760D01*
X10828570Y-13825760D02*
X10752379Y-13863855D01*
X10752379Y-13863855D02*
X10676189Y-13863855D01*
X10676189Y-13863855D02*
X10599998Y-13825760D01*
X10599998Y-13825760D02*
X10561903Y-13787664D01*
X10561903Y-13787664D02*
X10523808Y-13711474D01*
X10523808Y-13711474D02*
X10485712Y-13559093D01*
X10485712Y-13559093D02*
X10485712Y-13368617D01*
X10485712Y-13368617D02*
X10523808Y-13216236D01*
X10523808Y-13216236D02*
X10561903Y-13140045D01*
X10561903Y-13140045D02*
X10599998Y-13101950D01*
X10599998Y-13101950D02*
X10676189Y-13063855D01*
X11628570Y-13330521D02*
X11628570Y-13863855D01*
X11438094Y-13025760D02*
X11247617Y-13597188D01*
X11247617Y-13597188D02*
X11742856Y-13597188D01*
X12199999Y-13063855D02*
X12276189Y-13063855D01*
X12276189Y-13063855D02*
X12352380Y-13101950D01*
X12352380Y-13101950D02*
X12390475Y-13140045D01*
X12390475Y-13140045D02*
X12428570Y-13216236D01*
X12428570Y-13216236D02*
X12466665Y-13368617D01*
X12466665Y-13368617D02*
X12466665Y-13559093D01*
X12466665Y-13559093D02*
X12428570Y-13711474D01*
X12428570Y-13711474D02*
X12390475Y-13787664D01*
X12390475Y-13787664D02*
X12352380Y-13825760D01*
X12352380Y-13825760D02*
X12276189Y-13863855D01*
X12276189Y-13863855D02*
X12199999Y-13863855D01*
X12199999Y-13863855D02*
X12123808Y-13825760D01*
X12123808Y-13825760D02*
X12085713Y-13787664D01*
X12085713Y-13787664D02*
X12047618Y-13711474D01*
X12047618Y-13711474D02*
X12009522Y-13559093D01*
X12009522Y-13559093D02*
X12009522Y-13368617D01*
X12009522Y-13368617D02*
X12047618Y-13216236D01*
X12047618Y-13216236D02*
X12085713Y-13140045D01*
X12085713Y-13140045D02*
X12123808Y-13101950D01*
X12123808Y-13101950D02*
X12199999Y-13063855D01*
X12771427Y-13140045D02*
X12809523Y-13101950D01*
X12809523Y-13101950D02*
X12885713Y-13063855D01*
X12885713Y-13063855D02*
X13076189Y-13063855D01*
X13076189Y-13063855D02*
X13152380Y-13101950D01*
X13152380Y-13101950D02*
X13190475Y-13140045D01*
X13190475Y-13140045D02*
X13228570Y-13216236D01*
X13228570Y-13216236D02*
X13228570Y-13292426D01*
X13228570Y-13292426D02*
X13190475Y-13406712D01*
X13190475Y-13406712D02*
X12733332Y-13863855D01*
X12733332Y-13863855D02*
X13228570Y-13863855D01*
X13723809Y-13063855D02*
X13799999Y-13063855D01*
X13799999Y-13063855D02*
X13876190Y-13101950D01*
X13876190Y-13101950D02*
X13914285Y-13140045D01*
X13914285Y-13140045D02*
X13952380Y-13216236D01*
X13952380Y-13216236D02*
X13990475Y-13368617D01*
X13990475Y-13368617D02*
X13990475Y-13559093D01*
X13990475Y-13559093D02*
X13952380Y-13711474D01*
X13952380Y-13711474D02*
X13914285Y-13787664D01*
X13914285Y-13787664D02*
X13876190Y-13825760D01*
X13876190Y-13825760D02*
X13799999Y-13863855D01*
X13799999Y-13863855D02*
X13723809Y-13863855D01*
X13723809Y-13863855D02*
X13647618Y-13825760D01*
X13647618Y-13825760D02*
X13609523Y-13787664D01*
X13609523Y-13787664D02*
X13571428Y-13711474D01*
X13571428Y-13711474D02*
X13533332Y-13559093D01*
X13533332Y-13559093D02*
X13533332Y-13368617D01*
X13533332Y-13368617D02*
X13571428Y-13216236D01*
X13571428Y-13216236D02*
X13609523Y-13140045D01*
X13609523Y-13140045D02*
X13647618Y-13101950D01*
X13647618Y-13101950D02*
X13723809Y-13063855D01*
X14485714Y-13063855D02*
X14561904Y-13063855D01*
X14561904Y-13063855D02*
X14638095Y-13101950D01*
X14638095Y-13101950D02*
X14676190Y-13140045D01*
X14676190Y-13140045D02*
X14714285Y-13216236D01*
X14714285Y-13216236D02*
X14752380Y-13368617D01*
X14752380Y-13368617D02*
X14752380Y-13559093D01*
X14752380Y-13559093D02*
X14714285Y-13711474D01*
X14714285Y-13711474D02*
X14676190Y-13787664D01*
X14676190Y-13787664D02*
X14638095Y-13825760D01*
X14638095Y-13825760D02*
X14561904Y-13863855D01*
X14561904Y-13863855D02*
X14485714Y-13863855D01*
X14485714Y-13863855D02*
X14409523Y-13825760D01*
X14409523Y-13825760D02*
X14371428Y-13787664D01*
X14371428Y-13787664D02*
X14333333Y-13711474D01*
X14333333Y-13711474D02*
X14295237Y-13559093D01*
X14295237Y-13559093D02*
X14295237Y-13368617D01*
X14295237Y-13368617D02*
X14333333Y-13216236D01*
X14333333Y-13216236D02*
X14371428Y-13140045D01*
X14371428Y-13140045D02*
X14409523Y-13101950D01*
X14409523Y-13101950D02*
X14485714Y-13063855D01*
X15247619Y-13063855D02*
X15323809Y-13063855D01*
X15323809Y-13063855D02*
X15400000Y-13101950D01*
X15400000Y-13101950D02*
X15438095Y-13140045D01*
X15438095Y-13140045D02*
X15476190Y-13216236D01*
X15476190Y-13216236D02*
X15514285Y-13368617D01*
X15514285Y-13368617D02*
X15514285Y-13559093D01*
X15514285Y-13559093D02*
X15476190Y-13711474D01*
X15476190Y-13711474D02*
X15438095Y-13787664D01*
X15438095Y-13787664D02*
X15400000Y-13825760D01*
X15400000Y-13825760D02*
X15323809Y-13863855D01*
X15323809Y-13863855D02*
X15247619Y-13863855D01*
X15247619Y-13863855D02*
X15171428Y-13825760D01*
X15171428Y-13825760D02*
X15133333Y-13787664D01*
X15133333Y-13787664D02*
X15095238Y-13711474D01*
X15095238Y-13711474D02*
X15057142Y-13559093D01*
X15057142Y-13559093D02*
X15057142Y-13368617D01*
X15057142Y-13368617D02*
X15095238Y-13216236D01*
X15095238Y-13216236D02*
X15133333Y-13140045D01*
X15133333Y-13140045D02*
X15171428Y-13101950D01*
X15171428Y-13101950D02*
X15247619Y-13063855D01*
X16009524Y-13063855D02*
X16085714Y-13063855D01*
X16085714Y-13063855D02*
X16161905Y-13101950D01*
X16161905Y-13101950D02*
X16200000Y-13140045D01*
X16200000Y-13140045D02*
X16238095Y-13216236D01*
X16238095Y-13216236D02*
X16276190Y-13368617D01*
X16276190Y-13368617D02*
X16276190Y-13559093D01*
X16276190Y-13559093D02*
X16238095Y-13711474D01*
X16238095Y-13711474D02*
X16200000Y-13787664D01*
X16200000Y-13787664D02*
X16161905Y-13825760D01*
X16161905Y-13825760D02*
X16085714Y-13863855D01*
X16085714Y-13863855D02*
X16009524Y-13863855D01*
X16009524Y-13863855D02*
X15933333Y-13825760D01*
X15933333Y-13825760D02*
X15895238Y-13787664D01*
X15895238Y-13787664D02*
X15857143Y-13711474D01*
X15857143Y-13711474D02*
X15819047Y-13559093D01*
X15819047Y-13559093D02*
X15819047Y-13368617D01*
X15819047Y-13368617D02*
X15857143Y-13216236D01*
X15857143Y-13216236D02*
X15895238Y-13140045D01*
X15895238Y-13140045D02*
X15933333Y-13101950D01*
X15933333Y-13101950D02*
X16009524Y-13063855D01*
X16771429Y-13063855D02*
X16847619Y-13063855D01*
X16847619Y-13063855D02*
X16923810Y-13101950D01*
X16923810Y-13101950D02*
X16961905Y-13140045D01*
X16961905Y-13140045D02*
X17000000Y-13216236D01*
X17000000Y-13216236D02*
X17038095Y-13368617D01*
X17038095Y-13368617D02*
X17038095Y-13559093D01*
X17038095Y-13559093D02*
X17000000Y-13711474D01*
X17000000Y-13711474D02*
X16961905Y-13787664D01*
X16961905Y-13787664D02*
X16923810Y-13825760D01*
X16923810Y-13825760D02*
X16847619Y-13863855D01*
X16847619Y-13863855D02*
X16771429Y-13863855D01*
X16771429Y-13863855D02*
X16695238Y-13825760D01*
X16695238Y-13825760D02*
X16657143Y-13787664D01*
X16657143Y-13787664D02*
X16619048Y-13711474D01*
X16619048Y-13711474D02*
X16580952Y-13559093D01*
X16580952Y-13559093D02*
X16580952Y-13368617D01*
X16580952Y-13368617D02*
X16619048Y-13216236D01*
X16619048Y-13216236D02*
X16657143Y-13140045D01*
X16657143Y-13140045D02*
X16695238Y-13101950D01*
X16695238Y-13101950D02*
X16771429Y-13063855D01*
X17304762Y-13063855D02*
X17838096Y-13063855D01*
X17838096Y-13063855D02*
X17304762Y-13863855D01*
X17304762Y-13863855D02*
X17838096Y-13863855D01*
X18142858Y-13444807D02*
X18409524Y-13444807D01*
X18523810Y-13863855D02*
X18142858Y-13863855D01*
X18142858Y-13863855D02*
X18142858Y-13063855D01*
X18142858Y-13063855D02*
X18523810Y-13063855D01*
X19209525Y-13063855D02*
X19057144Y-13063855D01*
X19057144Y-13063855D02*
X18980953Y-13101950D01*
X18980953Y-13101950D02*
X18942858Y-13140045D01*
X18942858Y-13140045D02*
X18866668Y-13254331D01*
X18866668Y-13254331D02*
X18828572Y-13406712D01*
X18828572Y-13406712D02*
X18828572Y-13711474D01*
X18828572Y-13711474D02*
X18866668Y-13787664D01*
X18866668Y-13787664D02*
X18904763Y-13825760D01*
X18904763Y-13825760D02*
X18980953Y-13863855D01*
X18980953Y-13863855D02*
X19133334Y-13863855D01*
X19133334Y-13863855D02*
X19209525Y-13825760D01*
X19209525Y-13825760D02*
X19247620Y-13787664D01*
X19247620Y-13787664D02*
X19285715Y-13711474D01*
X19285715Y-13711474D02*
X19285715Y-13520998D01*
X19285715Y-13520998D02*
X19247620Y-13444807D01*
X19247620Y-13444807D02*
X19209525Y-13406712D01*
X19209525Y-13406712D02*
X19133334Y-13368617D01*
X19133334Y-13368617D02*
X18980953Y-13368617D01*
X18980953Y-13368617D02*
X18904763Y-13406712D01*
X18904763Y-13406712D02*
X18866668Y-13444807D01*
X18866668Y-13444807D02*
X18828572Y-13520998D01*
X19971430Y-13063855D02*
X19819049Y-13063855D01*
X19819049Y-13063855D02*
X19742858Y-13101950D01*
X19742858Y-13101950D02*
X19704763Y-13140045D01*
X19704763Y-13140045D02*
X19628573Y-13254331D01*
X19628573Y-13254331D02*
X19590477Y-13406712D01*
X19590477Y-13406712D02*
X19590477Y-13711474D01*
X19590477Y-13711474D02*
X19628573Y-13787664D01*
X19628573Y-13787664D02*
X19666668Y-13825760D01*
X19666668Y-13825760D02*
X19742858Y-13863855D01*
X19742858Y-13863855D02*
X19895239Y-13863855D01*
X19895239Y-13863855D02*
X19971430Y-13825760D01*
X19971430Y-13825760D02*
X20009525Y-13787664D01*
X20009525Y-13787664D02*
X20047620Y-13711474D01*
X20047620Y-13711474D02*
X20047620Y-13520998D01*
X20047620Y-13520998D02*
X20009525Y-13444807D01*
X20009525Y-13444807D02*
X19971430Y-13406712D01*
X19971430Y-13406712D02*
X19895239Y-13368617D01*
X19895239Y-13368617D02*
X19742858Y-13368617D01*
X19742858Y-13368617D02*
X19666668Y-13406712D01*
X19666668Y-13406712D02*
X19628573Y-13444807D01*
X19628573Y-13444807D02*
X19590477Y-13520998D01*
X20923811Y-13063855D02*
X21419049Y-13063855D01*
X21419049Y-13063855D02*
X21152383Y-13368617D01*
X21152383Y-13368617D02*
X21266668Y-13368617D01*
X21266668Y-13368617D02*
X21342859Y-13406712D01*
X21342859Y-13406712D02*
X21380954Y-13444807D01*
X21380954Y-13444807D02*
X21419049Y-13520998D01*
X21419049Y-13520998D02*
X21419049Y-13711474D01*
X21419049Y-13711474D02*
X21380954Y-13787664D01*
X21380954Y-13787664D02*
X21342859Y-13825760D01*
X21342859Y-13825760D02*
X21266668Y-13863855D01*
X21266668Y-13863855D02*
X21038097Y-13863855D01*
X21038097Y-13863855D02*
X20961906Y-13825760D01*
X20961906Y-13825760D02*
X20923811Y-13787664D01*
X21761907Y-13863855D02*
X21761907Y-13330521D01*
X21761907Y-13406712D02*
X21800002Y-13368617D01*
X21800002Y-13368617D02*
X21876192Y-13330521D01*
X21876192Y-13330521D02*
X21990478Y-13330521D01*
X21990478Y-13330521D02*
X22066669Y-13368617D01*
X22066669Y-13368617D02*
X22104764Y-13444807D01*
X22104764Y-13444807D02*
X22104764Y-13863855D01*
X22104764Y-13444807D02*
X22142859Y-13368617D01*
X22142859Y-13368617D02*
X22219050Y-13330521D01*
X22219050Y-13330521D02*
X22333335Y-13330521D01*
X22333335Y-13330521D02*
X22409526Y-13368617D01*
X22409526Y-13368617D02*
X22447621Y-13444807D01*
X22447621Y-13444807D02*
X22447621Y-13863855D01*
X22980955Y-13063855D02*
X23133336Y-13063855D01*
X23133336Y-13063855D02*
X23209526Y-13101950D01*
X23209526Y-13101950D02*
X23285717Y-13178140D01*
X23285717Y-13178140D02*
X23323812Y-13330521D01*
X23323812Y-13330521D02*
X23323812Y-13597188D01*
X23323812Y-13597188D02*
X23285717Y-13749569D01*
X23285717Y-13749569D02*
X23209526Y-13825760D01*
X23209526Y-13825760D02*
X23133336Y-13863855D01*
X23133336Y-13863855D02*
X22980955Y-13863855D01*
X22980955Y-13863855D02*
X22904764Y-13825760D01*
X22904764Y-13825760D02*
X22828574Y-13749569D01*
X22828574Y-13749569D02*
X22790478Y-13597188D01*
X22790478Y-13597188D02*
X22790478Y-13330521D01*
X22790478Y-13330521D02*
X22828574Y-13178140D01*
X22828574Y-13178140D02*
X22904764Y-13101950D01*
X22904764Y-13101950D02*
X22980955Y-13063855D01*
X23666669Y-13863855D02*
X23666669Y-13063855D01*
X24009526Y-13863855D02*
X24009526Y-13444807D01*
X24009526Y-13444807D02*
X23971431Y-13368617D01*
X23971431Y-13368617D02*
X23895240Y-13330521D01*
X23895240Y-13330521D02*
X23780954Y-13330521D01*
X23780954Y-13330521D02*
X23704764Y-13368617D01*
X23704764Y-13368617D02*
X23666669Y-13406712D01*
X24390479Y-13863855D02*
X24390479Y-13330521D01*
X24390479Y-13406712D02*
X24428574Y-13368617D01*
X24428574Y-13368617D02*
X24504764Y-13330521D01*
X24504764Y-13330521D02*
X24619050Y-13330521D01*
X24619050Y-13330521D02*
X24695241Y-13368617D01*
X24695241Y-13368617D02*
X24733336Y-13444807D01*
X24733336Y-13444807D02*
X24733336Y-13863855D01*
X24733336Y-13444807D02*
X24771431Y-13368617D01*
X24771431Y-13368617D02*
X24847622Y-13330521D01*
X24847622Y-13330521D02*
X24961907Y-13330521D01*
X24961907Y-13330521D02*
X25038098Y-13368617D01*
X25038098Y-13368617D02*
X25076193Y-13444807D01*
X25076193Y-13444807D02*
X25076193Y-13863855D01*
X26523813Y-13787664D02*
X26485717Y-13825760D01*
X26485717Y-13825760D02*
X26371432Y-13863855D01*
X26371432Y-13863855D02*
X26295241Y-13863855D01*
X26295241Y-13863855D02*
X26180955Y-13825760D01*
X26180955Y-13825760D02*
X26104765Y-13749569D01*
X26104765Y-13749569D02*
X26066670Y-13673379D01*
X26066670Y-13673379D02*
X26028574Y-13520998D01*
X26028574Y-13520998D02*
X26028574Y-13406712D01*
X26028574Y-13406712D02*
X26066670Y-13254331D01*
X26066670Y-13254331D02*
X26104765Y-13178140D01*
X26104765Y-13178140D02*
X26180955Y-13101950D01*
X26180955Y-13101950D02*
X26295241Y-13063855D01*
X26295241Y-13063855D02*
X26371432Y-13063855D01*
X26371432Y-13063855D02*
X26485717Y-13101950D01*
X26485717Y-13101950D02*
X26523813Y-13140045D01*
X26828574Y-13635283D02*
X27209527Y-13635283D01*
X26752384Y-13863855D02*
X27019051Y-13063855D01*
X27019051Y-13063855D02*
X27285717Y-13863855D01*
X27552384Y-13863855D02*
X27552384Y-13063855D01*
X27552384Y-13063855D02*
X28009527Y-13863855D01*
X28009527Y-13863855D02*
X28009527Y-13063855D01*
X28390479Y-13863855D02*
X28390479Y-13063855D01*
X28390479Y-13063855D02*
X28580955Y-13063855D01*
X28580955Y-13063855D02*
X28695241Y-13101950D01*
X28695241Y-13101950D02*
X28771431Y-13178140D01*
X28771431Y-13178140D02*
X28809526Y-13254331D01*
X28809526Y-13254331D02*
X28847622Y-13406712D01*
X28847622Y-13406712D02*
X28847622Y-13520998D01*
X28847622Y-13520998D02*
X28809526Y-13673379D01*
X28809526Y-13673379D02*
X28771431Y-13749569D01*
X28771431Y-13749569D02*
X28695241Y-13825760D01*
X28695241Y-13825760D02*
X28580955Y-13863855D01*
X28580955Y-13863855D02*
X28390479Y-13863855D01*
X29190479Y-13863855D02*
X29190479Y-13063855D01*
X29571431Y-13863855D02*
X29571431Y-13063855D01*
X29571431Y-13063855D02*
X29761907Y-13063855D01*
X29761907Y-13063855D02*
X29876193Y-13101950D01*
X29876193Y-13101950D02*
X29952383Y-13178140D01*
X29952383Y-13178140D02*
X29990478Y-13254331D01*
X29990478Y-13254331D02*
X30028574Y-13406712D01*
X30028574Y-13406712D02*
X30028574Y-13520998D01*
X30028574Y-13520998D02*
X29990478Y-13673379D01*
X29990478Y-13673379D02*
X29952383Y-13749569D01*
X29952383Y-13749569D02*
X29876193Y-13825760D01*
X29876193Y-13825760D02*
X29761907Y-13863855D01*
X29761907Y-13863855D02*
X29571431Y-13863855D01*
X30333335Y-13635283D02*
X30714288Y-13635283D01*
X30257145Y-13863855D02*
X30523812Y-13063855D01*
X30523812Y-13063855D02*
X30790478Y-13863855D01*
X30942859Y-13063855D02*
X31400002Y-13063855D01*
X31171430Y-13863855D02*
X31171430Y-13063855D01*
X31666669Y-13444807D02*
X31933335Y-13444807D01*
X32047621Y-13863855D02*
X31666669Y-13863855D01*
X31666669Y-13863855D02*
X31666669Y-13063855D01*
X31666669Y-13063855D02*
X32047621Y-13063855D01*
X-6733332Y-6063855D02*
X-6580951Y-6063855D01*
X-6580951Y-6063855D02*
X-6504761Y-6101950D01*
X-6504761Y-6101950D02*
X-6428570Y-6178140D01*
X-6428570Y-6178140D02*
X-6390475Y-6330521D01*
X-6390475Y-6330521D02*
X-6390475Y-6597188D01*
X-6390475Y-6597188D02*
X-6428570Y-6749569D01*
X-6428570Y-6749569D02*
X-6504761Y-6825760D01*
X-6504761Y-6825760D02*
X-6580951Y-6863855D01*
X-6580951Y-6863855D02*
X-6733332Y-6863855D01*
X-6733332Y-6863855D02*
X-6809523Y-6825760D01*
X-6809523Y-6825760D02*
X-6885713Y-6749569D01*
X-6885713Y-6749569D02*
X-6923809Y-6597188D01*
X-6923809Y-6597188D02*
X-6923809Y-6330521D01*
X-6923809Y-6330521D02*
X-6885713Y-6178140D01*
X-6885713Y-6178140D02*
X-6809523Y-6101950D01*
X-6809523Y-6101950D02*
X-6733332Y-6063855D01*
X-6047618Y-6863855D02*
X-6047618Y-6063855D01*
X-6047618Y-6063855D02*
X-5742856Y-6063855D01*
X-5742856Y-6063855D02*
X-5666666Y-6101950D01*
X-5666666Y-6101950D02*
X-5628571Y-6140045D01*
X-5628571Y-6140045D02*
X-5590475Y-6216236D01*
X-5590475Y-6216236D02*
X-5590475Y-6330521D01*
X-5590475Y-6330521D02*
X-5628571Y-6406712D01*
X-5628571Y-6406712D02*
X-5666666Y-6444807D01*
X-5666666Y-6444807D02*
X-5742856Y-6482902D01*
X-5742856Y-6482902D02*
X-6047618Y-6482902D01*
X-5247618Y-6444807D02*
X-4980952Y-6444807D01*
X-4866666Y-6863855D02*
X-5247618Y-6863855D01*
X-5247618Y-6863855D02*
X-5247618Y-6063855D01*
X-5247618Y-6063855D02*
X-4866666Y-6063855D01*
X-4523808Y-6863855D02*
X-4523808Y-6063855D01*
X-4523808Y-6063855D02*
X-4066665Y-6863855D01*
X-4066665Y-6863855D02*
X-4066665Y-6063855D01*
X-3685713Y-6444807D02*
X-3076190Y-6444807D01*
X-3076190Y-6673379D02*
X-3685713Y-6673379D01*
X-2695237Y-6444807D02*
X-2428571Y-6444807D01*
X-2314285Y-6863855D02*
X-2695237Y-6863855D01*
X-2695237Y-6863855D02*
X-2695237Y-6063855D01*
X-2695237Y-6063855D02*
X-2314285Y-6063855D01*
X-1971427Y-6863855D02*
X-1971427Y-6063855D01*
X-1971427Y-6063855D02*
X-1704761Y-6635283D01*
X-1704761Y-6635283D02*
X-1438094Y-6063855D01*
X-1438094Y-6063855D02*
X-1438094Y-6863855D01*
X-1057141Y-6863855D02*
X-1057141Y-6063855D01*
X-1057141Y-6063855D02*
X-790475Y-6635283D01*
X-790475Y-6635283D02*
X-523808Y-6063855D01*
X-523808Y-6063855D02*
X-523808Y-6863855D01*
X314287Y-6787664D02*
X276191Y-6825760D01*
X276191Y-6825760D02*
X161906Y-6863855D01*
X161906Y-6863855D02*
X85715Y-6863855D01*
X85715Y-6863855D02*
X-28570Y-6825760D01*
X-28570Y-6825760D02*
X-104760Y-6749569D01*
X-104760Y-6749569D02*
X-142855Y-6673379D01*
X-142855Y-6673379D02*
X-180951Y-6520998D01*
X-180951Y-6520998D02*
X-180951Y-6406712D01*
X-180951Y-6406712D02*
X-142855Y-6254331D01*
X-142855Y-6254331D02*
X-104760Y-6178140D01*
X-104760Y-6178140D02*
X-28570Y-6101950D01*
X-28570Y-6101950D02*
X85715Y-6063855D01*
X85715Y-6063855D02*
X161906Y-6063855D01*
X161906Y-6063855D02*
X276191Y-6101950D01*
X276191Y-6101950D02*
X314287Y-6140045D01*
X1838096Y-6025760D02*
X1152382Y-7054331D01*
X3171430Y-6787664D02*
X3133334Y-6825760D01*
X3133334Y-6825760D02*
X3019049Y-6863855D01*
X3019049Y-6863855D02*
X2942858Y-6863855D01*
X2942858Y-6863855D02*
X2828572Y-6825760D01*
X2828572Y-6825760D02*
X2752382Y-6749569D01*
X2752382Y-6749569D02*
X2714287Y-6673379D01*
X2714287Y-6673379D02*
X2676191Y-6520998D01*
X2676191Y-6520998D02*
X2676191Y-6406712D01*
X2676191Y-6406712D02*
X2714287Y-6254331D01*
X2714287Y-6254331D02*
X2752382Y-6178140D01*
X2752382Y-6178140D02*
X2828572Y-6101950D01*
X2828572Y-6101950D02*
X2942858Y-6063855D01*
X2942858Y-6063855D02*
X3019049Y-6063855D01*
X3019049Y-6063855D02*
X3133334Y-6101950D01*
X3133334Y-6101950D02*
X3171430Y-6140045D01*
X3895239Y-6863855D02*
X3514287Y-6863855D01*
X3514287Y-6863855D02*
X3514287Y-6063855D01*
X4314287Y-6063855D02*
X4466668Y-6063855D01*
X4466668Y-6063855D02*
X4542858Y-6101950D01*
X4542858Y-6101950D02*
X4619049Y-6178140D01*
X4619049Y-6178140D02*
X4657144Y-6330521D01*
X4657144Y-6330521D02*
X4657144Y-6597188D01*
X4657144Y-6597188D02*
X4619049Y-6749569D01*
X4619049Y-6749569D02*
X4542858Y-6825760D01*
X4542858Y-6825760D02*
X4466668Y-6863855D01*
X4466668Y-6863855D02*
X4314287Y-6863855D01*
X4314287Y-6863855D02*
X4238096Y-6825760D01*
X4238096Y-6825760D02*
X4161906Y-6749569D01*
X4161906Y-6749569D02*
X4123810Y-6597188D01*
X4123810Y-6597188D02*
X4123810Y-6330521D01*
X4123810Y-6330521D02*
X4161906Y-6178140D01*
X4161906Y-6178140D02*
X4238096Y-6101950D01*
X4238096Y-6101950D02*
X4314287Y-6063855D01*
X4961905Y-6825760D02*
X5076191Y-6863855D01*
X5076191Y-6863855D02*
X5266667Y-6863855D01*
X5266667Y-6863855D02*
X5342858Y-6825760D01*
X5342858Y-6825760D02*
X5380953Y-6787664D01*
X5380953Y-6787664D02*
X5419048Y-6711474D01*
X5419048Y-6711474D02*
X5419048Y-6635283D01*
X5419048Y-6635283D02*
X5380953Y-6559093D01*
X5380953Y-6559093D02*
X5342858Y-6520998D01*
X5342858Y-6520998D02*
X5266667Y-6482902D01*
X5266667Y-6482902D02*
X5114286Y-6444807D01*
X5114286Y-6444807D02*
X5038096Y-6406712D01*
X5038096Y-6406712D02*
X5000001Y-6368617D01*
X5000001Y-6368617D02*
X4961905Y-6292426D01*
X4961905Y-6292426D02*
X4961905Y-6216236D01*
X4961905Y-6216236D02*
X5000001Y-6140045D01*
X5000001Y-6140045D02*
X5038096Y-6101950D01*
X5038096Y-6101950D02*
X5114286Y-6063855D01*
X5114286Y-6063855D02*
X5304763Y-6063855D01*
X5304763Y-6063855D02*
X5419048Y-6101950D01*
X5761906Y-6444807D02*
X6028572Y-6444807D01*
X6142858Y-6863855D02*
X5761906Y-6863855D01*
X5761906Y-6863855D02*
X5761906Y-6063855D01*
X5761906Y-6063855D02*
X6142858Y-6063855D01*
X6485716Y-6863855D02*
X6485716Y-6063855D01*
X6485716Y-6063855D02*
X6676192Y-6063855D01*
X6676192Y-6063855D02*
X6790478Y-6101950D01*
X6790478Y-6101950D02*
X6866668Y-6178140D01*
X6866668Y-6178140D02*
X6904763Y-6254331D01*
X6904763Y-6254331D02*
X6942859Y-6406712D01*
X6942859Y-6406712D02*
X6942859Y-6520998D01*
X6942859Y-6520998D02*
X6904763Y-6673379D01*
X6904763Y-6673379D02*
X6866668Y-6749569D01*
X6866668Y-6749569D02*
X6790478Y-6825760D01*
X6790478Y-6825760D02*
X6676192Y-6863855D01*
X6676192Y-6863855D02*
X6485716Y-6863855D01*
X7285716Y-6444807D02*
X7895240Y-6444807D01*
X7895240Y-6673379D02*
X7285716Y-6673379D01*
X8161906Y-6063855D02*
X8619049Y-6063855D01*
X8390477Y-6863855D02*
X8390477Y-6063855D01*
X9152382Y-6444807D02*
X8885716Y-6444807D01*
X8885716Y-6863855D02*
X8885716Y-6063855D01*
X8885716Y-6063855D02*
X9266668Y-6063855D01*
X9609525Y-6825760D02*
X9609525Y-6863855D01*
X9609525Y-6863855D02*
X9571430Y-6940045D01*
X9571430Y-6940045D02*
X9533334Y-6978140D01*
X9571430Y-6368617D02*
X9609525Y-6406712D01*
X9609525Y-6406712D02*
X9571430Y-6444807D01*
X9571430Y-6444807D02*
X9533334Y-6406712D01*
X9533334Y-6406712D02*
X9571430Y-6368617D01*
X9571430Y-6368617D02*
X9571430Y-6444807D01*
X11019049Y-6787664D02*
X10980953Y-6825760D01*
X10980953Y-6825760D02*
X10866668Y-6863855D01*
X10866668Y-6863855D02*
X10790477Y-6863855D01*
X10790477Y-6863855D02*
X10676191Y-6825760D01*
X10676191Y-6825760D02*
X10600001Y-6749569D01*
X10600001Y-6749569D02*
X10561906Y-6673379D01*
X10561906Y-6673379D02*
X10523810Y-6520998D01*
X10523810Y-6520998D02*
X10523810Y-6406712D01*
X10523810Y-6406712D02*
X10561906Y-6254331D01*
X10561906Y-6254331D02*
X10600001Y-6178140D01*
X10600001Y-6178140D02*
X10676191Y-6101950D01*
X10676191Y-6101950D02*
X10790477Y-6063855D01*
X10790477Y-6063855D02*
X10866668Y-6063855D01*
X10866668Y-6063855D02*
X10980953Y-6101950D01*
X10980953Y-6101950D02*
X11019049Y-6140045D01*
X11514287Y-6063855D02*
X11666668Y-6063855D01*
X11666668Y-6063855D02*
X11742858Y-6101950D01*
X11742858Y-6101950D02*
X11819049Y-6178140D01*
X11819049Y-6178140D02*
X11857144Y-6330521D01*
X11857144Y-6330521D02*
X11857144Y-6597188D01*
X11857144Y-6597188D02*
X11819049Y-6749569D01*
X11819049Y-6749569D02*
X11742858Y-6825760D01*
X11742858Y-6825760D02*
X11666668Y-6863855D01*
X11666668Y-6863855D02*
X11514287Y-6863855D01*
X11514287Y-6863855D02*
X11438096Y-6825760D01*
X11438096Y-6825760D02*
X11361906Y-6749569D01*
X11361906Y-6749569D02*
X11323810Y-6597188D01*
X11323810Y-6597188D02*
X11323810Y-6330521D01*
X11323810Y-6330521D02*
X11361906Y-6178140D01*
X11361906Y-6178140D02*
X11438096Y-6101950D01*
X11438096Y-6101950D02*
X11514287Y-6063855D01*
X12580953Y-6863855D02*
X12200001Y-6863855D01*
X12200001Y-6863855D02*
X12200001Y-6063855D01*
X12847620Y-6863855D02*
X12847620Y-6063855D01*
X12847620Y-6063855D02*
X13038096Y-6063855D01*
X13038096Y-6063855D02*
X13152382Y-6101950D01*
X13152382Y-6101950D02*
X13228572Y-6178140D01*
X13228572Y-6178140D02*
X13266667Y-6254331D01*
X13266667Y-6254331D02*
X13304763Y-6406712D01*
X13304763Y-6406712D02*
X13304763Y-6520998D01*
X13304763Y-6520998D02*
X13266667Y-6673379D01*
X13266667Y-6673379D02*
X13228572Y-6749569D01*
X13228572Y-6749569D02*
X13152382Y-6825760D01*
X13152382Y-6825760D02*
X13038096Y-6863855D01*
X13038096Y-6863855D02*
X12847620Y-6863855D01*
X14409525Y-6063855D02*
X14561906Y-6063855D01*
X14561906Y-6063855D02*
X14638096Y-6101950D01*
X14638096Y-6101950D02*
X14714287Y-6178140D01*
X14714287Y-6178140D02*
X14752382Y-6330521D01*
X14752382Y-6330521D02*
X14752382Y-6597188D01*
X14752382Y-6597188D02*
X14714287Y-6749569D01*
X14714287Y-6749569D02*
X14638096Y-6825760D01*
X14638096Y-6825760D02*
X14561906Y-6863855D01*
X14561906Y-6863855D02*
X14409525Y-6863855D01*
X14409525Y-6863855D02*
X14333334Y-6825760D01*
X14333334Y-6825760D02*
X14257144Y-6749569D01*
X14257144Y-6749569D02*
X14219048Y-6597188D01*
X14219048Y-6597188D02*
X14219048Y-6330521D01*
X14219048Y-6330521D02*
X14257144Y-6178140D01*
X14257144Y-6178140D02*
X14333334Y-6101950D01*
X14333334Y-6101950D02*
X14409525Y-6063855D01*
X15095239Y-6863855D02*
X15095239Y-6063855D01*
X15095239Y-6063855D02*
X15552382Y-6863855D01*
X15552382Y-6863855D02*
X15552382Y-6063855D01*
X16314286Y-6863855D02*
X15933334Y-6863855D01*
X15933334Y-6863855D02*
X15933334Y-6063855D01*
X16733334Y-6482902D02*
X16733334Y-6863855D01*
X16466667Y-6063855D02*
X16733334Y-6482902D01*
X16733334Y-6482902D02*
X17000000Y-6063855D01*
D12*
X10578809Y-4579726D02*
X10155475Y-3974964D01*
X9853094Y-4579726D02*
X9853094Y-3309726D01*
X9853094Y-3309726D02*
X10336904Y-3309726D01*
X10336904Y-3309726D02*
X10457856Y-3370202D01*
X10457856Y-3370202D02*
X10518333Y-3430678D01*
X10518333Y-3430678D02*
X10578809Y-3551630D01*
X10578809Y-3551630D02*
X10578809Y-3733059D01*
X10578809Y-3733059D02*
X10518333Y-3854011D01*
X10518333Y-3854011D02*
X10457856Y-3914488D01*
X10457856Y-3914488D02*
X10336904Y-3974964D01*
X10336904Y-3974964D02*
X9853094Y-3974964D01*
X11062618Y-3430678D02*
X11123094Y-3370202D01*
X11123094Y-3370202D02*
X11244047Y-3309726D01*
X11244047Y-3309726D02*
X11546428Y-3309726D01*
X11546428Y-3309726D02*
X11667380Y-3370202D01*
X11667380Y-3370202D02*
X11727856Y-3430678D01*
X11727856Y-3430678D02*
X11788333Y-3551630D01*
X11788333Y-3551630D02*
X11788333Y-3672583D01*
X11788333Y-3672583D02*
X11727856Y-3854011D01*
X11727856Y-3854011D02*
X11002142Y-4579726D01*
X11002142Y-4579726D02*
X11788333Y-4579726D01*
X12574523Y-3309726D02*
X12695476Y-3309726D01*
X12695476Y-3309726D02*
X12816428Y-3370202D01*
X12816428Y-3370202D02*
X12876904Y-3430678D01*
X12876904Y-3430678D02*
X12937380Y-3551630D01*
X12937380Y-3551630D02*
X12997857Y-3793535D01*
X12997857Y-3793535D02*
X12997857Y-4095916D01*
X12997857Y-4095916D02*
X12937380Y-4337821D01*
X12937380Y-4337821D02*
X12876904Y-4458773D01*
X12876904Y-4458773D02*
X12816428Y-4519250D01*
X12816428Y-4519250D02*
X12695476Y-4579726D01*
X12695476Y-4579726D02*
X12574523Y-4579726D01*
X12574523Y-4579726D02*
X12453571Y-4519250D01*
X12453571Y-4519250D02*
X12393095Y-4458773D01*
X12393095Y-4458773D02*
X12332618Y-4337821D01*
X12332618Y-4337821D02*
X12272142Y-4095916D01*
X12272142Y-4095916D02*
X12272142Y-3793535D01*
X12272142Y-3793535D02*
X12332618Y-3551630D01*
X12332618Y-3551630D02*
X12393095Y-3430678D01*
X12393095Y-3430678D02*
X12453571Y-3370202D01*
X12453571Y-3370202D02*
X12574523Y-3309726D01*
X14146904Y-3309726D02*
X13542142Y-3309726D01*
X13542142Y-3309726D02*
X13481666Y-3914488D01*
X13481666Y-3914488D02*
X13542142Y-3854011D01*
X13542142Y-3854011D02*
X13663095Y-3793535D01*
X13663095Y-3793535D02*
X13965476Y-3793535D01*
X13965476Y-3793535D02*
X14086428Y-3854011D01*
X14086428Y-3854011D02*
X14146904Y-3914488D01*
X14146904Y-3914488D02*
X14207381Y-4035440D01*
X14207381Y-4035440D02*
X14207381Y-4337821D01*
X14207381Y-4337821D02*
X14146904Y-4458773D01*
X14146904Y-4458773D02*
X14086428Y-4519250D01*
X14086428Y-4519250D02*
X13965476Y-4579726D01*
X13965476Y-4579726D02*
X13663095Y-4579726D01*
X13663095Y-4579726D02*
X13542142Y-4519250D01*
X13542142Y-4519250D02*
X13481666Y-4458773D01*
%TO.C,R220*%
D13*
X25100000Y-4490000D02*
X26900000Y-4490000D01*
X26900000Y-5510000D01*
X25100000Y-5510000D01*
X25100000Y-4490000D01*
%TO.C,R221*%
D14*
X32685000Y-4835000D02*
X33315000Y-4835000D01*
X33315000Y-5165000D01*
X32685000Y-5165000D01*
X32685000Y-4835000D01*
D11*
X11685000Y-11847500D02*
X12315000Y-11847500D01*
X12315000Y-11822500D02*
G75*
G02*
X12315000Y-11847500I0J-12500D01*
G01*
X12315000Y-11822500D02*
X11685000Y-11822500D01*
X11685000Y-11822500D02*
G75*
G03*
X11685000Y-11847500I0J-12500D01*
G01*
X12302500Y-11835000D02*
X12302500Y-12165000D01*
X12327500Y-12165000D02*
G75*
G02*
X12302500Y-12165000I-12500J0D01*
G01*
X12327500Y-12165000D02*
X12327500Y-11835000D01*
X12327500Y-11835000D02*
G75*
G03*
X12302500Y-11835000I-12500J0D01*
G01*
X12315000Y-12152500D02*
X11685000Y-12152500D01*
X11685000Y-12177500D02*
G75*
G02*
X11685000Y-12152500I0J12500D01*
G01*
X11685000Y-12177500D02*
X12315000Y-12177500D01*
X12315000Y-12177500D02*
G75*
G03*
X12315000Y-12152500I0J12500D01*
G01*
X11697500Y-12165000D02*
X11697500Y-11835000D01*
X11672500Y-11835000D02*
G75*
G02*
X11697500Y-11835000I12500J0D01*
G01*
X11672500Y-11835000D02*
X11672500Y-12165000D01*
X11672500Y-12165000D02*
G75*
G03*
X11697500Y-12165000I12500J0D01*
G01*
%TO.C,R401*%
D14*
X4685000Y-11835000D02*
X5315000Y-11835000D01*
X5315000Y-12165000D01*
X4685000Y-12165000D01*
X4685000Y-11835000D01*
%TO.C,R561*%
D13*
X18450000Y-11700000D02*
X19550000Y-11700000D01*
X19550000Y-12300000D01*
X18450000Y-12300000D01*
X18450000Y-11700000D01*
%TD*%
D11*
X11280000Y-11460000D02*
X12720000Y-12540000D01*
X11280000Y-12540000D02*
X12720000Y-11460000D01*
X3775000Y-4075000D02*
X6225000Y-5925000D01*
X3775000Y-5925000D02*
X6225000Y-4075000D01*
M02*
