<?xml version="1.0" standalone="no"?>
 <!DOCTYPE svg PUBLIC "-//W3C//DTD SVG 1.1//EN" 
 "http://www.w3.org/Graphics/SVG/1.1/DTD/svg11.dtd"> 
<svg
  xmlns:svg="http://www.w3.org/2000/svg"
  xmlns="http://www.w3.org/2000/svg"
  xmlns:xlink="http://www.w3.org/1999/xlink"
  version="1.1"
  width="39.5478mm" height="13.0302mm" viewBox="0.0000 0.0000 39.5478 13.0302">
<title>SVG Image created as filter-copper.svg date 2026/10/02 23:07:42 </title>
  <desc>Image generated by PCBNEW </desc>
<g style="fill:#000000; fill-opacity:1.0000;stroke:#000000; stroke-opacity:1.0000;
stroke-linecap:round; stroke-linejoin:round;"
 transform="translate(0 0) scale(1 1)">
<path style="fill:#C83434; fill-opacity:1.0000; stroke:none;fill-rule:evenodd;"
d="M 14.1800,4.6250
14.1800,3.4250
14.5800,3.4250
14.5800,4.6250
Z" /> 
<path style="fill:#C83434; fill-opacity:1.0000; stroke:none;fill-rule:evenodd;"
d="M 14.9800,4.6250
14.9800,3.4250
15.3800,3.4250
15.3800,4.6250
Z" /> 
<path style="fill:#C83434; fill-opacity:1.0000; stroke:none;fill-rule:evenodd;"
d="M 24.1800,4.2750
24.1800,3.7750
24.5800,3.7750
24.5800,4.2750
Z" /> 
<path style="fill:#C83434; fill-opacity:1.0000; stroke:none;fill-rule:evenodd;"
d="M 24.9800,4.2750
24.9800,3.7750
25.3800,3.7750
25.3800,4.2750
Z" /> 
<path style="fill:#C83434; fill-opacity:1.0000; stroke:none;fill-rule:evenodd;"
d="M 19.1800,4.3750
19.1800,3.6750
19.5800,3.6750
19.5800,4.3750
Z" /> 
<path style="fill:#C83434; fill-opacity:1.0000; stroke:none;fill-rule:evenodd;"
d="M 19.9800,4.3750
19.9800,3.6750
20.3800,3.6750
20.3800,4.3750
Z" /> 
<path style="fill:#C83434; fill-opacity:1.0000; stroke:none;fill-rule:evenodd;"
d="M 19.0200,9.3350
19.0200,8.7150
19.6400,8.7150
19.6400,9.3350
Z" /> 
<path style="fill:#C83434; fill-opacity:1.0000; stroke:none;fill-rule:evenodd;"
d="M 19.9200,9.3350
19.9200,8.7150
20.5400,8.7150
20.5400,9.3350
Z" /> 
<path style="fill:#D864FF; fill-opacity:0.4000; stroke:none;fill-rule:evenodd;"
d="M 14.1800,4.2750
14.1800,3.7750
14.5800,3.7750
14.5800,4.2750
Z" /> 
<path style="fill:#D864FF; fill-opacity:0.4000; stroke:none;fill-rule:evenodd;"
d="M 14.9800,4.2750
14.9800,3.7750
15.3800,3.7750
15.3800,4.2750
Z" /> 
<path style="fill:#D864FF; fill-opacity:0.4000; stroke:none;fill-rule:evenodd;"
d="M 24.1800,4.2750
24.1800,3.7750
24.5800,3.7750
24.5800,4.2750
Z" /> 
<path style="fill:#D864FF; fill-opacity:0.4000; stroke:none;fill-rule:evenodd;"
d="M 24.9800,4.2750
24.9800,3.7750
25.3800,3.7750
25.3800,4.2750
Z" /> 
<path style="fill:#D864FF; fill-opacity:0.4000; stroke:none;fill-rule:evenodd;"
d="M 19.1800,4.2750
19.1800,3.7750
19.5800,3.7750
19.5800,4.2750
Z" /> 
<path style="fill:#D864FF; fill-opacity:0.4000; stroke:none;fill-rule:evenodd;"
d="M 19.9800,4.2750
19.9800,3.7750
20.3800,3.7750
20.3800,4.2750
Z" /> 
<path style="fill:#D864FF; fill-opacity:0.4000; stroke:none;fill-rule:evenodd;"
d="M 18.9700,8.7150
18.9738,8.6959
18.9846,8.6796
19.0009,8.6688
19.0200,8.6650
19.6400,8.6650
19.6591,8.6688
19.6754,8.6796
19.6862,8.6959
19.6900,8.7150
19.6900,9.3350
19.6862,9.3541
19.6754,9.3704
19.6591,9.3812
19.6400,9.3850
19.0200,9.3850
19.0009,9.3812
18.9846,9.3704
18.9738,9.3541
18.9700,9.3350
Z" /> 
<path style="fill:#D864FF; fill-opacity:0.4000; stroke:none;fill-rule:evenodd;"
d="M 19.8700,8.7150
19.8738,8.6959
19.8846,8.6796
19.9009,8.6688
19.9200,8.6650
20.5400,8.6650
20.5591,8.6688
20.5754,8.6796
20.5862,8.6959
20.5900,8.7150
20.5900,9.3350
20.5862,9.3541
20.5754,9.3704
20.5591,9.3812
20.5400,9.3850
19.9200,9.3850
19.9009,9.3812
19.8846,9.3704
19.8738,9.3541
19.8700,9.3350
Z" /> 
<path style="fill:none; 
stroke:#FF26E2; stroke-width:0.0500; stroke-opacity:1; 
stroke-linecap:round; stroke-linejoin:round;fill:none"
d="M 13.8800,3.1250
15.6800,3.1250
15.6800,4.9250
13.8800,4.9250
Z" /> 
<path style="fill:none; 
stroke:#FF26E2; stroke-width:0.0500; stroke-opacity:1; 
stroke-linecap:round; stroke-linejoin:round;fill:none"
d="M 23.8800,3.4250
25.6800,3.4250
25.6800,4.6250
23.8800,4.6250
Z" /> 
<path style="fill:none; 
stroke:#FF26E2; stroke-width:0.0500; stroke-opacity:1; 
stroke-linecap:round; stroke-linejoin:round;fill:none"
d="M 18.8800,3.3750
20.6800,3.3750
20.6800,4.6750
18.8800,4.6750
Z" /> 
<path style="fill:none; 
stroke:#FF26E2; stroke-width:0.0500; stroke-opacity:1; 
stroke-linecap:round; stroke-linejoin:round;fill:none"
d="M 18.8300,8.5250
20.7300,8.5250
20.7300,9.5250
18.8300,9.5250
Z" /> 
</g>
<g style="fill:none; 
stroke:#D0D2CD; stroke-width:0.0500; stroke-opacity:1; 
stroke-linecap:round; stroke-linejoin:round;">
<path d="M30.7800 0.0250
L30.7800 13.0250
" />
<path d="M10.7800 13.0250
L10.7800 0.0250
" />
<path d="M10.7800 0.0250
L30.7800 0.0250
" />
<path d="M30.7800 13.0250
L10.7800 13.0250
" />
</g> 
</svg>
