%TF.GenerationSoftware,KiCad,Pcbnew,9.0.2+dfsg-1*%
%TF.CreationDate,2026-10-01T10:40:59-07:00*%
%TF.ProjectId,NXP_Process_020_0075,4e58505f-5072-46f6-9365-73735f303230,rev?*%
%TF.SameCoordinates,Original*%
%TF.FileFunction,Soldermask,Top*%
%TF.FilePolarity,Negative*%
%FSLAX46Y46*%
G04 Gerber Fmt 4.6, Leading zero omitted, Abs format (unit mm)*
G04 Created by KiCad (PCBNEW 9.0.2+dfsg-1) date 2026-10-01 10:40:59*
%MOMM*%
%LPD*%
G01*
G04 APERTURE LIST*
G04 APERTURE END LIST*
G36*
X4772500Y-3888793D02*
G01*
X4779961Y-3899955D01*
X4820039Y-3899955D01*
X4827500Y-3888792D01*
X4827500Y-3887500D01*
X5172500Y-3887500D01*
X5172500Y-3888793D01*
X5179961Y-3899955D01*
X5220039Y-3899955D01*
X5227500Y-3888792D01*
X5227500Y-3887500D01*
X5572500Y-3887500D01*
X5572500Y-4562500D01*
X5571198Y-4562500D01*
X5553585Y-4574263D01*
X5569726Y-4627500D01*
X5912500Y-4627500D01*
X5912500Y-4972500D01*
X5911201Y-4972500D01*
X5900044Y-4979954D01*
X5900044Y-5020046D01*
X5911203Y-5027500D01*
X5912500Y-5027500D01*
X5912500Y-5372500D01*
X5569733Y-5372500D01*
X5553583Y-5425719D01*
X5571207Y-5437500D01*
X5572500Y-5437500D01*
X5572500Y-6112500D01*
X5227500Y-6112500D01*
X5227500Y-6111202D01*
X5220046Y-6100044D01*
X5179954Y-6100044D01*
X5172500Y-6111201D01*
X5172500Y-6112500D01*
X4827500Y-6112500D01*
X4827500Y-6111202D01*
X4820046Y-6100044D01*
X4779954Y-6100044D01*
X4772500Y-6111201D01*
X4772500Y-6112500D01*
X4427500Y-6112500D01*
X4427500Y-5437500D01*
X4428786Y-5437500D01*
X4446417Y-5425708D01*
X4434070Y-5385043D01*
X4742426Y-5385043D01*
X4752198Y-5434194D01*
X4768816Y-5437500D01*
X4772500Y-5437500D01*
X4772500Y-5438793D01*
X4779961Y-5449955D01*
X4820039Y-5449955D01*
X4827500Y-5438792D01*
X4827500Y-5437500D01*
X5172500Y-5437500D01*
X5172500Y-5438793D01*
X5179961Y-5449955D01*
X5220039Y-5449955D01*
X5227500Y-5438792D01*
X5227500Y-5437500D01*
X5231178Y-5437500D01*
X5247801Y-5434192D01*
X5257573Y-5385046D01*
X5238797Y-5372500D01*
X5237500Y-5372500D01*
X5237500Y-5027500D01*
X5238792Y-5027500D01*
X5249955Y-5020039D01*
X5249955Y-4979961D01*
X5238794Y-4972500D01*
X5237500Y-4972500D01*
X5237500Y-4627500D01*
X5238794Y-4627500D01*
X5257578Y-4614946D01*
X5247793Y-4565796D01*
X5231204Y-4562500D01*
X5227500Y-4562500D01*
X5227500Y-4561203D01*
X5220046Y-4550044D01*
X5179954Y-4550044D01*
X5172500Y-4561201D01*
X5172500Y-4562500D01*
X4859733Y-4562500D01*
X4843583Y-4615719D01*
X4861207Y-4627500D01*
X4862500Y-4627500D01*
X4862500Y-4972500D01*
X4772558Y-4972500D01*
X4751371Y-5012150D01*
X4761632Y-5027500D01*
X4762500Y-5027500D01*
X4762500Y-5372500D01*
X4761200Y-5372500D01*
X4742426Y-5385043D01*
X4434070Y-5385043D01*
X4430262Y-5372500D01*
X4087500Y-5372500D01*
X4087500Y-5027500D01*
X4088792Y-5027500D01*
X4099955Y-5020039D01*
X4099955Y-4979961D01*
X4088794Y-4972500D01*
X4087500Y-4972500D01*
X4087500Y-4627500D01*
X4430274Y-4627500D01*
X4446415Y-4574263D01*
X4753585Y-4574263D01*
X4769726Y-4627500D01*
X4830268Y-4627500D01*
X4846416Y-4574275D01*
X4828796Y-4562500D01*
X4827500Y-4562500D01*
X4827500Y-4561202D01*
X4820046Y-4550044D01*
X4779954Y-4550044D01*
X4772500Y-4561200D01*
X4772500Y-4562500D01*
X4771197Y-4562500D01*
X4753585Y-4574263D01*
X4446415Y-4574263D01*
X4428801Y-4562500D01*
X4427500Y-4562500D01*
X4427500Y-3887500D01*
X4772500Y-3887500D01*
X4772500Y-3888793D01*
G37*
M02*
